<svg xmlns="http://www.w3.org/2000/svg" version="1.1" xmlns:xlink="http://www.w3.org/1999/xlink" xmlns:svgjs="http://svgjs.com/svgjs" width="512" height="512" x="0" y="0" viewBox="0 0 32 32" style="enable-background:new 0 0 512 512" xml:space="preserve" class=""><g transform="matrix(1,0,0,1,0,3.552713678800501e-15)"><circle cx="26.749" cy="18.048" r=".75" fill="#010006" data-original="#0b0040" class="" opacity="1"></circle><circle cx="26.749" cy="21.552" r=".75" fill="#040006" data-original="#c177e0" class="" opacity="1"></circle><path fill="#010006" d="M8.999 23.552c-1.517 0-2.75-1.233-2.75-2.75s1.233-2.75 2.75-2.75 2.75 1.233 2.75 2.75-1.233 2.75-2.75 2.75zm0-4c-.689 0-1.25.561-1.25 1.25s.561 1.25 1.25 1.25 1.25-.561 1.25-1.25-.561-1.25-1.25-1.25z" data-original="#0b0040" class="" opacity="1"></path><path fill="#0b1e45" d="M16.002 19.133c-.688 0-1.297-.39-1.59-1.016a5.59 5.59 0 0 0-2.286-2.497c-2.878-1.663-4.347-4.869-3.741-8.167.563-3.075 3-5.543 6.063-6.139 2.317-.452 4.682.136 6.477 1.614a7.726 7.726 0 0 1 2.825 5.984 7.782 7.782 0 0 1-3.799 6.662c-1.06.628-1.868 1.49-2.34 2.494-.318.678-.925 1.063-1.608 1.063zm-.019-16.467c-.414 0-.832.04-1.249.121-2.463.479-4.423 2.463-4.876 4.937-.488 2.666.695 5.256 3.017 6.598a7.025 7.025 0 0 1 2.869 3.106c.087.185.197.204.258.205a.24.24 0 0 0 .224-.144c.627-1.334 1.641-2.423 2.959-3.205a6.27 6.27 0 0 0 3.064-5.371 6.234 6.234 0 0 0-2.278-4.826 6.248 6.248 0 0 0-3.987-1.421z" data-original="#3f73db" class="" opacity="1"></path><path fill="#0b1e45" d="M14.591 2.05c-2.756.537-4.964 2.777-5.47 5.538a6.997 6.997 0 0 0 3.38 7.382 6.32 6.32 0 0 1 2.565 2.777l.024.051c.365.777 1.455.776 1.815.01l.027-.058c.561-1.194 1.502-2.148 2.636-2.82A6.987 6.987 0 0 0 23 8.913a7.008 7.008 0 0 0-8.408-6.863zm1.408 9.222a2.5 2.5 0 1 1 0-5 2.5 2.5 0 0 1 0 5z" data-original="#3f73db" class="" opacity="1"></path><g fill="#0b0040"><path d="M15.999 30.617c-.3 0-.601-.076-.868-.229l-6.012-3.435a.247.247 0 0 0-.249 0l-5.003 2.862c-.547.312-1.2.312-1.745-.005a1.732 1.732 0 0 1-.873-1.515V10.6c0-.628.336-1.207.881-1.519l3.636-2.079a.75.75 0 1 1 .745 1.302l-3.636 2.08a.248.248 0 0 0-.125.216v17.696c0 .126.078.189.125.217a.24.24 0 0 0 .248 0l5.003-2.863a1.75 1.75 0 0 1 1.738 0l6.012 3.435a.25.25 0 0 0 .248 0l6.011-3.434a1.75 1.75 0 0 1 1.738 0l5.002 2.861a.243.243 0 0 0 .25 0 .242.242 0 0 0 .125-.217V10.601a.249.249 0 0 0-.126-.217l-3.583-2.05a.75.75 0 0 1 .745-1.302l3.582 2.049c.545.312.882.892.882 1.52v17.695c0 .632-.326 1.197-.872 1.515a1.742 1.742 0 0 1-1.748.005l-5.002-2.862a.25.25 0 0 0-.248 0l-6.012 3.435a1.76 1.76 0 0 1-.868.229z" fill="#010006" data-original="#0b0040" class="" opacity="1"></path><path d="M16.749 30.021h-1.5v-8.918a.75.75 0 0 1 1.5 0zM9.749 18.83h-1.5v-3.229a.75.75 0 0 1 1.5 0zM8.249 22.587h1.5v3.631h-1.5zM23.749 26h-1.5V15.601a.75.75 0 0 1 1.5 0z" fill="#010006" data-original="#0b0040" class="" opacity="1"></path><circle cx="8.999" cy="20.802" r="1.924" fill="#010006" data-original="#0b0040" class="" opacity="1"></circle></g></g></svg>