<svg xmlns="http://www.w3.org/2000/svg" version="1.1" xmlns:xlink="http://www.w3.org/1999/xlink" xmlns:svgjs="http://svgjs.com/svgjs" width="512" height="512" x="0" y="0" viewBox="0 0 507.859 507.859" style="enable-background:new 0 0 512 512" xml:space="preserve" class=""><rect width="507.859" height="507.859" rx="20" ry="20" fill="#5e6266" shape="rounded"></rect><g transform="matrix(0.7,0,0,0.7,76.17884674072266,76.17888608425858)"><path fill="#e5f6fd" d="M253.93 31.323c-91.692 0-148.175 51.72-148.33 51.807 0 0-2.348 2.931-2.787 4.88-3.568 15.836-6.901 37.06-6.901 52.548 0 131.592 110.97 238.242 242.562 238.242 50.673 0 107.05-24.286 144.782-53.487.844-.653 3.522-5.042 3.522-5.042.166-1.015 5.42-21.936 5.42-50.68C492.198 138 385.521 31.323 253.93 31.323z" data-original="#e5f6fd" class=""></path><path fill="#7daae7" d="M338.453 372.074c-131.592 0-238.268-106.676-238.268-238.268 0-17.394 1.876-34.341 5.414-50.675-54.797 43.654-89.938 110.955-89.938 186.461 0 59.968 22.154 114.762 58.724 156.644l363.494-5.19c23.608-28.628 40.701-62.941 48.898-100.774-40.7 32.418-92.245 51.802-148.324 51.802z" data-original="#cce1fe" class="" opacity="1"></path><path fill="#d14a20" d="M266.452.104c-4.847-.372-9.501.268-13.773 1.731-3.809 1.304-7.961 1.461-11.753.112a33.59 33.59 0 0 0-9.453-1.895 34.65 34.65 0 0 0-7.263.367l-1 .879c-15.557 13.675-20.232 36.314-10.553 54.627 3.875 7.331 9.369 12.434 16.919 12.434a34.02 34.02 0 0 0 17.089-4.573 34.023 34.023 0 0 0 17.09 4.573c19.677 0 35.471-16.628 34.096-36.599-1.154-16.754-14.655-30.372-31.399-31.656z" data-original="#d14a20" class=""></path><path fill="#bc3f1e" d="M256.692 45.239c-18.877 0-34.179-15.303-34.179-34.179 0-3.715.601-7.289 1.697-10.638-16.327 2.575-28.814 16.706-28.814 33.757 0 18.877 15.303 34.179 34.179 34.179 15.161 0 28.009-9.875 32.482-23.542a34.252 34.252 0 0 1-5.365.423z" data-original="#bc3f1e" class=""></path><g fill="#bc3f1e"><path d="M379.473 151.93H265.255v335.435c49.214-7.185 91.405-56.773 114.218-127.46zM244.06 38.708c-59.959 3.816-110.957 46.331-125.09 105.429a369.083 369.083 0 0 0-2.336 10.433c-6.416 30.697-21.354 59.021-43.689 81.035-14.503 14.294-23.494 34.165-23.494 56.137 0 21.906 20.232 41.718 40.402 55.994 24.137 17.084 44.57 38.979 59.075 64.749 24.401 43.354 57.866 71.475 95.133 75.327V38.708z" fill="#bc3f1e" data-original="#bc3f1e" class=""></path></g><path fill="#d14a20" d="M388.687 152.633c-.141-.657-.283-1.312-.427-1.966-14.438-65.596-72.683-112.24-139.848-112.24h-11.21l.674 22.928 13.737.832c34.505 0 61.387 16.853 75.045 48.54 17.87 41.459 31.681 93.135 31.681 148.734 0 100.045-34.23 186.307-83.618 225.995 29.414-7.671 55.921-30.586 76.723-63.919 20.116-32.233 46.202-60.203 76.456-83.188 16.428-12.481 30.509-28.47 30.509-46.608 0-22.385-9.334-42.583-24.322-56.925-23.128-22.133-38.686-50.884-45.4-82.183z" data-original="#d14a20" class=""></path><path fill="#a03c19" d="m346.27 237.883-3.661-2.986 2.884-70.203c-.233-21.931-18.085-39.583-40.018-39.568l-47.514.033c-26.276.018-50.164 10.207-67.962 26.831l-.008-13.822c-19.144 13.17-31.675 64.349-31.658 89.334l.021 29.547c.04 57.485 51.623 101.926 109.41 92.18l.131.006c44.631-7.585 78.599-46.456 78.567-93.242zM189.985 129.274l.007 8.893c.511-.352 1.032-.689 1.553-1.028-.997-6.345-1.562-10.132-1.56-7.865z" data-original="#a03c19"></path><path fill="#edbc83" d="m256.223 339.168-120.436 26.731v57.46h241.044v-57.503z" data-original="#edbc83" class=""></path><path fill="#e09380" d="M289.508 354.555c.013 18.206-14.736 32.976-32.943 32.989-18.206.013-32.976-14.736-32.989-32.943l-.037-52.943 65.917-20.94z" data-original="#e09380" class=""></path><path fill="#d27f6c" d="m223.529 286.247.014 19.978c.013 18.207 14.782 32.956 32.989 32.943 18.206-.013 32.956-14.782 32.943-32.989l-.028-40.872z" data-original="#d27f6c" class=""></path><path fill="#bc3f1e" d="M368.383 204.426c.008 12.119-9.809 21.951-21.929 21.959h-1.781v-55.63h1.742c12.119-.008 21.951 9.809 21.959 21.929z" data-original="#bc3f1e" class=""></path><path fill="#e09380" d="M368.383 196.425c.008 12.119-9.809 21.951-21.929 21.959h-1.781v-55.63h1.742c12.119-.008 21.951 9.809 21.959 21.929z" data-original="#e09380" class=""></path><path fill="#edbc83" d="M345.493 138.691c-.233-21.931-18.085-39.583-40.018-39.568l-47.514.033c-26.475.018-50.53 10.359-68.37 27.207l.094 135.846c0 .693.012 1.384.035 2.072 1.05 31.514 26.816 56.632 58.315 58.054l19.86.896c44.631-7.585 78.599-46.456 78.566-93.242l-.192-18.109-3.661-2.986z" data-original="#edbc83" class=""></path><path fill="#d27f6c" d="M355.038 192.587a8.907 8.907 0 0 1-8.899 8.912l-.016-22.577a8.907 8.907 0 0 1 8.912 8.899z" data-original="#d27f6c" class=""></path><path fill="#a03c19" d="M136.385 203.587c.008 12.119 9.842 21.937 21.961 21.929h2.091l-.419-55.63h-1.71c-12.119.008-21.931 9.84-21.922 21.959v11.742z" data-original="#a03c19"></path><path fill="#e09380" d="M136.385 196.586c.008 12.119 9.842 21.937 21.961 21.929h2.091l-.419-55.63h-1.71c-12.119.008-21.931 9.84-21.922 21.959v11.742z" data-original="#e09380" class=""></path><path fill="#d27f6c" d="M149.23 192.41a9.095 9.095 0 0 0 9.102 9.089l-.016-23.058a9.095 9.095 0 0 0-9.089 9.102z" data-original="#d27f6c" class=""></path><path fill="#e09380" d="m212.409 194.848.006 8.039a7.796 7.796 0 0 0 15.59-.01l-.006-8.039zM302.404 67.413c24.196.021 39.463 18.678 39.446 42.874l4.288 91.212.019-54.525-.042 60.525c-6.923-.005-12.532-5.621-12.527-12.545l.005-2.709c.016-8.988-7.262-16.286-16.251-16.294-64.944-.719-79.498-64.675-79.467-108.596zM276.069 194.804l.006 8.039a7.796 7.796 0 0 0 15.59-.01l-.006-8.039z" data-original="#e09380" class=""></path><path fill="#20396b" d="M283.87 204.137a7.795 7.795 0 0 1-7.8-7.79l-.005-7.293 3.126-4.703-3.132-4.698-.003-4.626a7.795 7.795 0 0 1 15.59-.01l.015 21.319a7.797 7.797 0 0 1-7.791 7.801z" data-original="#20396b" class=""></path><path fill="#e09380" d="M240.232 217.524c-1.933 6.83 1.594 14.265 8.33 16.503 1.356.45 2.805.693 4.312.692s2.956-.246 4.311-.698c6.733-2.247 10.25-9.687 8.307-16.514l-9.474-33.298c-.911-3.203-5.451-3.199-6.358.004z" data-original="#e09380" class=""></path><path fill="#e1948a" d="m189.985 103.273.007 8.893c.511-.352 1.032-.689 1.553-1.028-.997-6.346-1.562-10.133-1.56-7.865z" data-original="#e1948a" class=""></path><path fill="#e09380" d="m158.334 201.499.02 29.547c.04 57.527 51.699 101.993 109.537 92.16-44.166-7.482-77.823-45.882-77.855-92.182-.004-34.999-.031-95.3-.046-118.859-19.142 13.17-31.673 64.349-31.656 89.334z" data-original="#e09380" class=""></path><path fill="#e1948a" d="M290.386 104.197c21.383-.015 43.47 22.884 43.485 44.267l7.98-49.929-50.257.95z" data-original="#e1948a" class=""></path><path fill="#e09380" d="M205.046 66.796a43.72 43.72 0 0 0-15.209 2.73v76.822c.091-.002.179-.014.27-.014 43.922-.04 79.498-35.673 79.467-79.595z" data-original="#e09380" class=""></path><path fill="#e09380" d="M336.972 186.042c.081-23.374 2.651-46.584 5.005-69.809 2.315-22.849-14.865-43.473-37.812-44.401a42.883 42.883 0 0 0-1.761-.036l-64.529-.057v.127c0 43.889 35.579 79.467 79.467 79.467 8.989 0 16.274 7.29 16.268 16.279l-.022 31.725c-.005 6.923 5.604 12.54 12.527 12.545l.812-.035-.788-10.349c-5.371-2.803-9.188-9.138-9.167-15.456z" data-original="#e09380" class=""></path><path fill="#bc3f1e" d="M202.046 61.413c-24.196.021-43.795 19.651-43.778 43.847l.025 35.714.042 60.525c6.923-.005 12.532-5.621 12.527-12.545l-.022-31.71c-.006-8.991 7.276-16.286 16.268-16.294 43.922-.04 79.498-35.673 79.467-79.595z" data-original="#bc3f1e" class=""></path><path fill="#d14a20" d="M302.404 61.413c24.196.021 47.059 17.002 47.043 41.198l-3.03 60.144-.301 38.744c-6.923-.005-12.532-5.621-12.527-12.545l.005-2.709c.016-8.988-7.262-16.286-16.251-16.294-64.944-.719-79.498-64.675-79.467-108.596z" data-original="#d14a20" class=""></path><path fill="#ffffff" d="M279.196 192.181a3.13 3.13 0 0 1-3.131-3.127l-.007-9.401a3.13 3.13 0 0 1 6.258-.004l.007 9.401a3.13 3.13 0 0 1-3.127 3.131z" data-original="#ffffff"></path><path fill="#e09380" d="M258.795 283.807c-21.899.015-39.724-14.62-39.737-32.624a6.239 6.239 0 1 1 12.478-.008c.008 11.124 12.231 20.165 27.25 20.154a6.239 6.239 0 0 1 6.243 6.235 6.238 6.238 0 0 1-6.234 6.243z" data-original="#e09380" class=""></path><ellipse cx="199.032" cy="228.489" fill="#e09380" rx="23.778" ry="16.721" data-original="#e09380" class=""></ellipse><ellipse cx="304.078" cy="229.96" fill="#e09380" rx="23.778" ry="16.721" data-original="#e09380" class=""></ellipse><path fill="#20396b" d="M209.515 181.332c-2.985.002-5.971-1.134-8.754-3.41a4.32 4.32 0 1 1 5.469-6.687c2.42 1.98 4.136 1.979 6.555-.005a4.32 4.32 0 0 1 5.477 6.68c-2.778 2.279-5.763 3.42-8.747 3.422zM294.005 180.313c-2.985.002-5.971-1.134-8.754-3.409a4.32 4.32 0 0 1 5.469-6.687c2.42 1.979 4.136 1.978 6.555-.005a4.32 4.32 0 0 1 5.477 6.681c-2.778 2.278-5.763 3.418-8.747 3.42z" data-original="#20396b" class=""></path><path fill="#20396b" d="M220.211 204.181a7.795 7.795 0 0 1-7.8-7.79l-.004-5.749 3.126-4.703-3.132-4.698-.004-6.169a7.795 7.795 0 0 1 15.59-.01L228 196.38a7.796 7.796 0 0 1-7.789 7.801z" data-original="#20396b" class=""></path><path fill="#ffffff" d="M215.537 193.769a3.13 3.13 0 0 1-3.131-3.127l-.007-9.401a3.13 3.13 0 0 1 6.258-.004l.007 9.401a3.13 3.13 0 0 1-3.127 3.131z" data-original="#ffffff"></path><path fill="#f7e07d" d="M393.232 369.748c-7.78-1.862-15.883 1.504-20.015 8.355-17.771 29.462-63.239 50.416-116.525 50.416-38.29 0-72.524-10.83-95.364-27.852l4.023 90.164c27.384 10.976 57.272 17.028 88.578 17.028 73.626 0 140.05-33.579 183.95-86.815-4.322-23.813-21.253-43.893-44.647-51.296z" data-original="#f7e07d"></path><path fill="#efc250" d="M379.93 365.577c-1.905 3.158-3.541 6.468-5.594 9.546-2.816 4.222-6.303 7.966-9.962 11.465-3.364 3.218-6.938 6.149-10.755 8.681-6.141 6.017-13.878 11.519-22.994 16.23-20.617 10.653-46.874 16.521-73.933 16.521-25.527 0-50.331-5.225-70.368-14.76a11.707 11.707 0 0 1-1.86-.461c-6.125-2.089-12.139-4.924-17.809-8.406-15.896-10.416-27.237-23.579-31.988-38.245l-1.003.223a71.658 71.658 0 0 1-.331-.878l-9.542 3.091-.345.086c-27.028 6.823-46.289 30.246-49.059 57.567 24.587 28.158 55.69 50.479 90.958 64.613 0 0 .013-13.167.037-27.427.028-16.05 15.667-27.524 30.938-22.585 16.379 5.298 37.764 10.237 60.372 10.183 30.664-.072 60.671-6.779 84.492-19.087 24.626-12.725 41.826-30.872 48.43-51.096l3.569-10.932z" data-original="#efc250" class=""></path><path fill="#fbf490" d="M256.692 433.519c-29.68 0-58.653-6.535-81.581-18.401-23.116-11.963-39.169-28.808-45.202-47.43a5 5 0 0 1 9.514-3.082c11.058 34.136 60.376 58.913 117.269 58.913 56.806 0 106.11-24.731 117.236-58.805a5 5 0 1 1 9.506 3.104c-6.07 18.591-22.135 35.403-45.234 47.339-22.915 11.841-51.862 18.362-81.508 18.362z" data-original="#fbf490" class=""></path></g></svg>