<svg xmlns="http://www.w3.org/2000/svg" version="1.1" xmlns:xlink="http://www.w3.org/1999/xlink" xmlns:svgjs="http://svgjs.com/svgjs" width="512" height="512" x="0" y="0" viewBox="0 0 512 512" style="enable-background:new 0 0 512 512" xml:space="preserve" class=""><rect width="512" height="512" rx="20" ry="20" fill="#253b52" shape="rounded"></rect><g transform="matrix(0.7,0,0,0.7,76.79969444274903,76.80009545908544)"><path fill="#e2a975" d="m413.861 382.119-84.486-24.849a24.048 24.048 0 0 1-17.263-23.071v-54.151H199.887v54.151a24.048 24.048 0 0 1-17.263 23.071l-84.486 24.849c-20.469 6.02-34.526 24.806-34.526 46.142V467h384.774v-38.738c.001-21.336-14.055-40.122-34.525-46.143z" data-original="#e2a975" class=""></path><path fill="#d19a6e" d="M199.887 323.101c16.968 8.282 35.96 13.06 56.113 13.06s39.145-4.778 56.113-13.06v-43.052H199.887z" data-original="#d19a6e"></path><path fill="#f5ebcd" d="m376.242 504.5 72.145-76.238c0-21.336-14.056-40.122-34.525-46.142l-59.284-17.437-84.799 51.675a26.478 26.478 0 0 1-27.558 0l-84.799-51.675-59.283 17.436c-20.469 6.02-34.526 24.806-34.526 46.143l72.145 76.238z" data-original="#f5ebcd" class=""></path><path fill="#966a5b" d="m391.892 69.529-23.667-5.917V39.564a8.016 8.016 0 0 0-8.016-8.016h-40.081l-21.015-21.015a8.015 8.015 0 0 0-7.24-2.192L256 15.516l-44.028-7.338a8.013 8.013 0 0 0-6.986 2.239l-13.115 13.115-46.016 6.574c-5.142.735-8.238 6.09-6.309 10.913l12.244 30.61-30.631 6.126c-4.915.983-7.732 6.184-5.871 10.838l12.453 31.133-12.529 12.529a8.017 8.017 0 0 0-1.937 8.203l14.466 43.397h256.516l14.466-43.397c.96-2.88.21-6.056-1.937-8.203l-12.529-12.529 13.295-39.885c1.477-4.43-1.13-9.179-5.66-10.312z" data-original="#966a5b" class=""></path><path fill="#785353" d="m139.546 41.018 12.244 30.61-30.631 6.126c-4.915.983-7.732 6.184-5.871 10.838l12.453 31.133-12.529 12.529a8.014 8.014 0 0 0-1.936 8.203l14.466 43.397h63.852c20.774-28.697 40.358-56.113 40.358-56.113l-42.275-63.413c-2.932-4.398-.879-10.38 4.135-12.051l4.135-1.378c5.014-1.671 7.067-7.653 4.135-12.051l-10.211-15.316-46.016 6.574c-5.142.734-8.238 6.09-6.309 10.912z" data-original="#785353"></path><path fill="#ecbd83" d="M371.091 175.839h-2.865l-24.741-48.382c-2.563-5.012-9.358-5.89-13.111-1.695l-14.921 16.677-43.913-33.907c-4.347-3.357-10.706-1.446-12.484 3.75l-2.686 7.851a8.017 8.017 0 0 1-9.499 5.19l-67.34-16.559a8.016 8.016 0 0 0-9.465 5.093l-18.276 51.276v10.708h-10.881c-10.483 0-20.035 7.542-21.08 17.973-1.201 11.996 8.187 22.108 19.937 22.108h12.429c4.106 53.795 48.957 96.194 103.805 96.194s99.699-42.398 103.805-96.194h12.429c11.75 0 21.138-10.112 19.937-22.108-1.045-10.433-10.598-17.976-21.08-17.975z" data-original="#ecbd83" class=""></path><path fill="#e2a975" d="M183.855 207.903v-98.077l-4.323-1.063a8.016 8.016 0 0 0-9.465 5.093l-18.277 51.276v10.708h-10.881c-10.483 0-20.035 7.542-21.08 17.973-1.201 11.996 8.186 22.108 19.937 22.108h12.429c4.106 53.795 48.957 96.194 103.805 96.194 5.483 0 10.83-.534 16.083-1.351-49.947-7.71-88.228-50.757-88.228-102.861z" data-original="#e2a975" class=""></path><path fill="#ffffff" d="M229.442 227.275c-6.381 0-10.362 7.21-6.712 12.445 8.412 12.063 20.159 19.62 33.27 19.62s24.858-7.557 33.27-19.62c3.65-5.234-.33-12.445-6.712-12.445z" data-original="#ffffff" class=""></path><g fill="#f4dbb3"><path d="M135.758 485.84a48.095 48.095 0 0 0-15.922-35.75l-50.128-45.115c-3.869 6.971-6.095 14.913-6.095 23.288V504.5h72.145zM376.242 485.839a48.095 48.095 0 0 1 15.922-35.75l50.129-45.116c3.869 6.971 6.095 14.913 6.095 23.288V504.5h-72.145v-18.661z" fill="#f4dbb3" data-original="#f4dbb3" class=""></path></g><path d="m415.978 374.924-84.486-24.849c-6.994-2.057-11.879-8.585-11.879-15.876v-34.528c25.013-17.396 42.617-44.741 47.019-76.253h4.458c14.617 0 27.155-10.861 28.543-24.727.778-7.771-1.764-15.53-6.974-21.288-.217-.24-.444-.469-.669-.701l15.264-38.16a7.502 7.502 0 0 0-1.66-8.089L392.839 117.7 407.406 74a7.498 7.498 0 0 0-5.297-9.647l-26.384-6.596V31.548a7.5 7.5 0 0 0-7.5-7.5h-44.99L301.384 2.197A7.503 7.503 0 0 0 294.61.146l-38.733 7.747-46.741-7.79a7.506 7.506 0 0 0-6.536 2.095l-14.265 14.264-53.638 7.663a7.503 7.503 0 0 0-5.903 10.211l12.684 31.709-31.24 6.248a7.5 7.5 0 0 0-5.493 10.14l14.195 35.489-12.535 12.536a7.5 7.5 0 0 0-1.66 8.089l15.37 38.426c-4.271 4.296-7.127 9.893-7.748 16.094-.779 7.771 1.762 15.531 6.972 21.289a27.597 27.597 0 0 0 20.426 9.067h5.598c4.399 31.522 22.003 58.87 47.023 76.264V334.2c0 7.291-4.885 13.819-11.879 15.876l-84.486 24.849c-23.498 6.912-39.909 28.845-39.909 53.338V504.5a7.5 7.5 0 0 0 15 0v-76.238c0-3.228.396-6.394 1.137-9.447l42.145 36.877a40.593 40.593 0 0 1 13.864 30.552V504.5a7.5 7.5 0 0 0 15 0v-18.256a55.595 55.595 0 0 0-18.986-41.841l-45.479-39.794c5.162-7.178 12.622-12.694 21.461-15.294l56.559-16.635 21.134 12.879a7.497 7.497 0 0 0 10.308-2.502 7.5 7.5 0 0 0-2.502-10.307l-9.498-5.788 8.485-2.496c13.334-3.922 22.646-16.368 22.646-30.267v-25.733c14.705 7.137 31.199 11.146 48.613 11.146 17.412 0 33.906-4.012 48.613-11.153v25.74c0 13.898 9.313 26.345 22.646 30.267l8.485 2.496-71.133 43.347a16.489 16.489 0 0 1-17.223 0l-35.581-21.682A7.5 7.5 0 0 0 204 401.436l35.581 21.682a31.5 31.5 0 0 0 16.417 4.628 31.513 31.513 0 0 0 16.417-4.628l82.769-50.438 56.56 16.635c8.84 2.6 16.299 8.116 21.461 15.294l-45.478 39.794a55.595 55.595 0 0 0-18.987 41.841V504.5a7.5 7.5 0 0 0 15 0v-18.256a40.593 40.593 0 0 1 13.864-30.552l42.145-36.876a40.02 40.02 0 0 1 1.137 9.446V504.5a7.5 7.5 0 0 0 15 0v-76.238c.001-24.493-16.41-46.426-39.908-53.338zM120.51 137.564l12.535-12.536a7.5 7.5 0 0 0 1.66-8.089L122.021 85.23l31.24-6.248a7.5 7.5 0 0 0 5.493-10.14l-12.488-31.22 46.666-6.667a7.499 7.499 0 0 0 4.243-2.122l13.303-13.303 44.29 7.382a7.515 7.515 0 0 0 2.704-.043l36.145-7.229 21.21 21.21a7.497 7.497 0 0 0 5.303 2.197h40.597v24.564a7.5 7.5 0 0 0 5.681 7.276l24.208 6.052-13.471 40.413a7.5 7.5 0 0 0 1.812 7.675l12.535 12.536-12.637 31.594a27.44 27.44 0 0 0-6.619-.819h-29.295c-2.082-10.802-8.57-20.048-17.515-25.797l11.422-12.766 14.863 25.763a7.501 7.501 0 0 0 12.994-7.496l-20.04-34.737a7.502 7.502 0 0 0-12.086-1.253l-18.061 20.186-47.251-36.485a7.498 7.498 0 0 0-11.679 3.508l-6.462 18.89-74.837-18.401a7.499 7.499 0 0 0-8.855 4.765l-22.749 63.823h-1.773c-2.648 0-5.225.361-7.682 1.027zm126.235 30.775c-3.516-18.24-19.591-32.064-38.842-32.064s-35.326 13.824-38.842 32.064h-10.452l18.679-52.403 74.917 18.422a7.502 7.502 0 0 0 8.887-4.855l5.294-15.475 29.835 23.037c-15.634 3.17-27.944 15.589-30.967 31.275h-18.509zm-38.842-17.065c13.545 0 24.564 11.02 24.564 24.564s-11.02 24.564-24.564 24.564-24.564-11.02-24.564-24.564 11.019-24.564 24.564-24.564zm96.194 0c13.545 0 24.564 11.02 24.564 24.564s-11.02 24.564-24.564 24.564-24.564-11.02-24.564-24.564 11.019-24.564 24.564-24.564zM159.29 207.903a7.5 7.5 0 0 0-15 0v.516h-4.524a12.57 12.57 0 0 1-9.303-4.131c-2.407-2.66-3.532-6.115-3.17-9.729.63-6.292 6.613-11.221 13.619-11.221h28.149c3.515 18.241 19.591 32.065 38.842 32.065s35.327-13.824 38.842-32.064h18.509c3.516 18.24 19.591 32.064 38.842 32.064s35.327-13.824 38.842-32.064h29.295a12.57 12.57 0 0 1 9.303 4.13c2.406 2.66 3.533 6.115 3.17 9.729-.63 6.292-6.611 11.221-13.618 11.221h-3.384v-.439a7.5 7.5 0 0 0-7.497-7.5h-.003a7.5 7.5 0 0 0-7.5 7.495c-.039 53.286-43.421 96.638-96.706 96.638-53.324 0-96.708-43.384-96.708-96.71z" fill="#000000" data-original="#000000" class=""></path><path d="M282.559 219.775h-53.117c-5.824 0-11.125 3.225-13.834 8.417-2.656 5.09-2.284 11.151.971 15.818 10.266 14.722 24.267 22.83 39.422 22.83s29.156-8.108 39.422-22.83c3.255-4.667 3.627-10.728.971-15.818-2.71-5.192-8.011-8.417-13.835-8.417zm.559 15.655c-7.379 10.582-17.01 16.41-27.118 16.41s-19.739-5.828-27.162-16.483c-.006-.048.037-.227.178-.387a.5.5 0 0 1 .425-.194h53.117a.5.5 0 0 1 .425.194c.142.16.184.339.135.46zM207.903 184.035a7.5 7.5 0 0 0 7.5-7.5v-8.016a7.5 7.5 0 0 0-15 0v8.016a7.5 7.5 0 0 0 7.5 7.5zM304.097 184.035a7.5 7.5 0 0 0 7.5-7.5v-8.016a7.5 7.5 0 0 0-15 0v8.016c0 4.143 3.357 7.5 7.5 7.5z" fill="#000000" data-original="#000000" class=""></path></g></svg>