<svg xmlns="http://www.w3.org/2000/svg" version="1.1" xmlns:xlink="http://www.w3.org/1999/xlink" xmlns:svgjs="http://svgjs.com/svgjs" width="512" height="512" x="0" y="0" viewBox="0 0 512 512" style="enable-background:new 0 0 512 512" xml:space="preserve" class=""><rect width="512" height="512" rx="20" ry="20" fill="#eb9b9b" shape="rounded"></rect><g transform="matrix(0.9299999999999999,0,0,0.9299999999999999,17.08000106811528,18.75562553405763)"><g data-name="filled outline"><path fill="#a3612d" d="M352 392v-14.7a155.883 155.883 0 0 0-8-49.3 155.883 155.883 0 0 1-8-49.3V160h-64v224z" data-original="#a3612d"></path><path fill="#fdc9a6" d="M290.185 350.361a24.006 24.006 0 0 1-4.12-9.968L280 304h-48l-6.065 36.393a24.006 24.006 0 0 1-4.12 9.968L256 376z" data-original="#fdc9a6"></path><path fill="#f6bb92" d="M344 240h-16l8-48h8a24 24 0 0 1 24 24 24 24 0 0 1-24 24z" data-original="#f6bb92"></path><g fill="#fdc9a6"><path d="M256 312a64 64 0 0 1-51.2-25.6A144 144 0 0 1 176 200v-72h160v72a144 144 0 0 1-28.8 86.4A64 64 0 0 1 256 312zM176 440c4.619-9.238 7.293-48.68 7.878-66.133A133.928 133.928 0 0 0 120 488h48v-14.111A75.779 75.779 0 0 1 176 440zM392 488a133.928 133.928 0 0 0-63.878-114.133c.585 17.453 3.259 56.895 7.878 66.133a75.779 75.779 0 0 1 8 33.889V488z" fill="#fdc9a6" data-original="#fdc9a6"></path></g><path fill="#e6e5e0" d="M336 440c-4.619-9.238-7.293-48.68-7.878-66.133-2.146-1.317-29.761-16.288-29.761-16.288a24 24 0 0 1-8.176-7.218L256 376l-34.185-25.639a24 24 0 0 1-8.176 7.218s-27.615 14.971-29.761 16.288c-.585 17.453-3.259 56.895-7.878 66.133a75.779 75.779 0 0 0-8 33.889V488h176v-14.111A75.779 75.779 0 0 0 336 440z" data-original="#e6e5e0"></path><path fill="#e6e5e0" d="M304 360.64V376a48 48 0 1 1-96 0v-15.36c3.33-1.81 5.64-3.06 5.64-3.06a23.9 23.9 0 0 0 8.17-7.22L224 352v24a32 32 0 0 0 64 0v-24l2.19-1.64a23.9 23.9 0 0 0 8.17 7.22s2.31 1.25 5.64 3.06z" data-original="#e6e5e0"></path><path fill="#933f35" d="M176 168h-56a24 24 0 0 0-24 24 24 24 0 0 0 24 24h56z" data-original="#933f35"></path><path fill="#a3612d" d="M336 128H168v264a32 32 0 0 0 32-32V208a175.416 175.416 0 0 0 68.037-48.71L288 136l5.011 17.539A118.909 118.909 0 0 0 336 216l1.967-2.951A51.724 51.724 0 0 0 344 168z" data-original="#a3612d"></path><path fill="#c34a56" d="M344 168H168v-63.531a38 38 0 0 1 22.275-34.594L222.9 55.047a80 80 0 0 1 66.208 0l32.621 14.828A38 38 0 0 1 344 104.469z" data-original="#c34a56"></path><circle cx="256" cy="112" r="24" fill="#cdccc8" data-original="#cdccc8" class=""></circle><circle cx="224" cy="216.529" r="9" fill="#000000" data-original="#000000" class=""></circle><circle cx="287" cy="215.529" r="9" fill="#000000" data-original="#000000" class=""></circle><path d="M255.735 256.525h.27a8 8 0 0 0 .26-16 2.111 2.111 0 0 1-1.8-3.08l.646-1.251a8 8 0 1 0-14.212-7.348l-.646 1.25a18.11 18.11 0 0 0 15.487 26.42zM248 264a8 8 0 0 0 0 16h4.687a35.082 35.082 0 0 0 24.97-10.343 8 8 0 0 0-11.314-11.314A19.187 19.187 0 0 1 252.687 264z" fill="#000000" data-original="#000000" class=""></path><path d="m325.035 62.592-32.62-14.827a87.979 87.979 0 0 0-72.83 0l-32.62 14.827A46.1 46.1 0 0 0 160 104.469V160h-40a32 32 0 0 0 0 64h40v157.768a8 8 0 0 0-1.187.882A142.174 142.174 0 0 0 112 488a8 8 0 0 0 8 8h272a8 8 0 0 0 8-8 141.751 141.751 0 0 0-40-98.794V377.3a163.587 163.587 0 0 0-8.411-51.828A147.621 147.621 0 0 1 344 278.7V248a32.008 32.008 0 0 0 10.67-62.183 59.833 59.833 0 0 0-2.67-18.988v-62.36a46.1 46.1 0 0 0-26.965-41.877zm3.81 380.986A68.118 68.118 0 0 1 336 473.889V480H176v-6.111a68.118 68.118 0 0 1 7.155-30.311c4.095-8.19 6.452-31.408 7.749-50.813a40.125 40.125 0 0 0 15.7-22.312l1.4-.751V376a47.735 47.735 0 0 0 26.03 42.673 28 28 0 1 0 43.94 0A47.735 47.735 0 0 0 304 376v-6.3l13.77 7.414c.852.459 1.69.938 2.529 1.415.501 11.188 2.734 53.425 8.546 65.049zM176 176h63.26a166.439 166.439 0 0 1-42.231 24.572A8 8 0 0 0 192 208v152a24.042 24.042 0 0 1-16 22.629zm161.843 0a43.3 43.3 0 0 1-3.864 28.046A111.172 111.172 0 0 1 311.114 176zm-44.792 0a127.143 127.143 0 0 0 33.63 42.826A136.1 136.1 0 0 1 300.8 281.6a56 56 0 0 1-89.6 0 138.099 138.099 0 0 1-3.2-4.473v-63.8A182.209 182.209 0 0 0 263.344 176zM268 436a12 12 0 1 1-12.21-11.989h.42A12.008 12.008 0 0 1 268 436zm-.116-30.289a31.943 31.943 0 0 1-11.67 2.294h-.427A32.019 32.019 0 0 1 224 376v-14l27.2 20.4a8 8 0 0 0 9.6 0L288 362v14a31.847 31.847 0 0 1-20.116 29.711zM208 301.635a72.473 72.473 0 0 0 14.6 10.1l-4.558 27.346a16.108 16.108 0 0 1-6.348 10.268 7.752 7.752 0 0 0-.557.393c-.419.281-.844.555-1.291.8l-1.847.994zm70.174 40.073a31.633 31.633 0 0 0 1.766 6.337L256 366l-23.94-17.955a31.614 31.614 0 0 0 1.766-6.337l4.011-24.068a71.073 71.073 0 0 0 36.326 0zm47.181 21.32-23.2-12.493c-.446-.24-.87-.514-1.288-.794a9.481 9.481 0 0 0-.562-.4 16.107 16.107 0 0 1-6.346-10.266l-4.559-27.343a71.993 71.993 0 0 0 24.2-20.532 151.854 151.854 0 0 0 14.4-23.37v10.87a163.587 163.587 0 0 0 8.411 51.828 147.584 147.584 0 0 1 7.566 44.5 142.481 142.481 0 0 0-18.622-12zM176 104.469a30.063 30.063 0 0 1 17.586-27.311l32.621-14.828a71.987 71.987 0 0 1 59.586 0l32.622 14.828A30.064 30.064 0 0 1 336 104.469V160H176zM120 208a16 16 0 0 1 0-32h40v32zm44.6 191.236a7.954 7.954 0 0 0 3.4.764 40.017 40.017 0 0 0 6.367-.513c-1.69 21.175-3.9 33.684-5.522 36.935A84.206 84.206 0 0 0 160 473.889V480h-31.745a126.216 126.216 0 0 1 36.35-80.764zM352 480v-6.111a84.206 84.206 0 0 0-8.845-37.467c-2.42-4.841-4.874-25.761-6.221-46.6A125.74 125.74 0 0 1 383.748 480zm8-264a16.019 16.019 0 0 1-16 16v-13.578l.624-.935a60.143 60.143 0 0 0 7.364-15.374A15.947 15.947 0 0 1 360 216z" fill="#000000" data-original="#000000" class=""></path><path d="M256 80a32 32 0 1 0 32 32 32.036 32.036 0 0 0-32-32zm0 48a16 16 0 1 1 16-16 16.019 16.019 0 0 1-16 16z" fill="#000000" data-original="#000000" class=""></path></g></g></svg>