<svg xmlns="http://www.w3.org/2000/svg" version="1.1" xmlns:xlink="http://www.w3.org/1999/xlink" xmlns:svgjs="http://svgjs.com/svgjs" width="512" height="512" x="0" y="0" viewBox="0 0 510 510" style="enable-background:new 0 0 512 512" xml:space="preserve" class=""><rect width="510" height="510" rx="20" ry="20" fill="#6a6a6a" shape="rounded"></rect><g transform="matrix(0.7,0,0,0.7,76.4999954223633,76.50000429153442)"><path fill="#7e5e9f" d="M255 27.729c-92.795 0-149.958 52.343-150.116 52.431 0 0-2.377 2.966-2.821 4.938-3.611 16.027-6.984 37.507-6.984 53.181 0 133.175 112.306 241.109 245.482 241.109 51.283 0 108.339-24.579 146.525-54.131.854-.661 3.564-5.103 3.564-5.103.168-1.028 5.485-22.2 5.485-51.29C496.136 135.689 388.176 27.729 255 27.729z" data-original="#ad7fdd" class="" opacity="1"></path><path fill="#7040a3" d="M340.541 372.58c-133.176 0-241.136-107.96-241.136-241.136a241.91 241.91 0 0 1 5.48-51.285c-55.456 44.18-91.02 112.29-91.02 188.705 0 56.537 19.457 108.53 52.041 149.648l378.184.011c22.38-28.229 38.608-61.662 46.561-98.369-41.191 32.809-93.357 52.426-150.11 52.426z" data-original="#9d66d6" class="" opacity="1"></path><path fill="#26447e" d="M404.358 149.358c0 25.518-6.399 49.54-17.68 70.552-8.396 10.612-73.463 64.358-130.434 64.358-82.488 0-128.298-50.944-128.298-133.432 0-59.473 40.073-113.398 62.768-136.332C210.185 5.206 231.984 0 255 0c82.488 0 149.358 66.87 149.358 149.358z" data-original="#26447e" class=""></path><path fill="#20396b" d="M322.388 234.415c-82.488 0-149.358-66.87-149.358-149.358 0-25.518 6.405-49.537 17.686-70.548-50.312 24.027-85.074 75.377-85.074 134.849 0 82.488 66.87 149.358 149.358 149.358 56.97 0 106.485-31.9 131.671-78.81-19.47 9.299-41.267 14.509-64.283 14.509z" data-original="#20396b" class=""></path><path fill="#122a51" d="M379.501 150.725c0-73.754-55.741-133.543-124.501-133.543-19.185 0-37.357 4.655-53.587 12.969l-.009.01c-41.933 21.486-70.905 67.394-70.905 120.565 0 73.754 55.741 133.543 124.501 133.543 47.478 0 88.743-28.509 109.743-70.434l.021-.028c9.403-18.787 14.737-40.267 14.737-63.082z" data-original="#122a51" class=""></path><path fill="#755431" d="M307.235 40.108c-15.794-7.917-33.62-12.38-52.49-12.38-64.785 0-117.303 52.518-117.303 117.303v55.866h169.794l21.381-149.966z" data-original="#755431"></path><path fill="#a37544" d="M318.51 53.071v147.827h53.537v-55.866c0-38.898-18.936-73.37-48.091-94.711-2.26-1.655-5.446-.052-5.446 2.75z" data-original="#a37544" class=""></path><path fill="#e5f6fd" d="M393.521 362.807a75.35 75.35 0 0 0-2.098-.496l-68.111-15.072-146.714 34.236 15.764 120.285A241.293 241.293 0 0 0 255 510c29.566 0 57.985-5.351 84.287-15.172l13.025-21.868 22.014 5.461a242.258 242.258 0 0 0 69.763-59.898c-4.355-26.623-23.813-48.98-50.568-55.716z" data-original="#e5f6fd" class=""></path><path fill="#cce1fe" d="m309.124 344.099-107.778-.197-14.188 3.149-68.623 15.231c-.703.156-1.402.322-2.097.497-26.745 6.752-46.187 29.112-50.532 55.732 19.55 24.671 43.826 45.426 71.46 60.898l17.52-3.508 17.52 19.581a239.284 239.284 0 0 0 19.949 6.299v-72.216c.033-9.138 10.917-13.8 17.758-7.741 12.012 10.641 27.812 17.101 45.122 17.101 37.598 0 68.077-30.479 68.077-68.077v-23.61z" data-original="#cce1fe" class=""></path><path fill="#ffffff" d="M255.235 422.242c29.762 0 53.889-24.127 53.889-53.889v-24.254l-54.415-12.041-53.363 11.844v24.451c0 29.762 24.127 53.889 53.889 53.889z" data-original="#ffffff" class=""></path><path fill="#e09380" d="M255.235 398.421c-19.39 0-35.109-15.719-35.109-35.109v-78.639h70.218v78.639c0 19.39-15.719 35.109-35.109 35.109z" data-original="#e09380" class=""></path><path fill="#d27f6c" d="M290.344 332.986v-39.561h-70.218v39.561c0 19.39 15.719 35.109 35.109 35.109s35.109-15.719 35.109-35.109z" data-original="#d27f6c" class=""></path><path fill="#e09380" d="M354.911 230.521h-6.198v-59.246h6.198c12.907 0 23.37 10.463 23.37 23.37v12.505c0 12.908-10.463 23.371-23.37 23.371z" data-original="#e09380" class=""></path><path fill="#dd5ca2" d="M354.911 211.24v-20.683a8.16 8.16 0 0 1 8.159 8.159v4.366a8.159 8.159 0 0 1-8.159 8.158z" data-original="#dd5ca2" class=""></path><path fill="#e09380" d="M131.202 207.151c0 12.907 10.463 23.37 23.37 23.37h5.411l1.652-59.246h-7.063c-12.907 0-23.37 10.463-23.37 23.37z" data-original="#e09380" class=""></path><path fill="#dd5ca2" d="M146.384 203.089a8.188 8.188 0 0 0 8.188 8.188v-20.758a8.188 8.188 0 0 0-8.188 8.188z" data-original="#dd5ca2" class=""></path><path fill="#edbc83" d="M351.715 125.904c-11.174-43.125-50.354-74.972-96.973-74.972-.934 0-1.866.013-2.794.038-40.412 1.108-72.293 34.868-72.293 75.295v141.772c0 .77.012 1.538.035 2.303 1.204 40.156 34.677 71.851 74.85 72.218l13.81.126c48.852-6.42 86.563-48.213 86.563-98.818V216.74z" data-original="#edbc83" class=""></path><path fill="#e09380" d="M212.168 206.62v7.029a8.302 8.302 0 0 0 16.604 0v-7.029zM279.811 206.62v7.029a8.302 8.302 0 0 0 16.604 0v-7.029z" data-original="#e09380" class=""></path><path fill="#e09380" d="M268.347 342.681c-49.261-6.419-87.521-48.548-87.521-99.8V129.099c0-50.872 37.924-70.88 87.042-77.31a101.155 101.155 0 0 0-13.127-.856c-45.213 0-83.429 29.955-95.886 71.101l-4.283 89.243v31.604c0 55.347 44.616 100.061 99.522 100.647.122.002.241.011.363.012a100.69 100.69 0 0 0 6.103-.139l.078-.003-.005-.002c2.599-.139 5.171-.381 7.714-.715z" data-original="#e09380" class=""></path><path fill="#20396b" d="M220.47 215.301a8.302 8.302 0 0 1-8.302-8.302V196.32l3.06-4.634-3.06-4.634v-2.758a8.302 8.302 0 0 1 16.604 0v22.705a8.302 8.302 0 0 1-8.302 8.302zM288.113 215.301a8.302 8.302 0 0 1-8.302-8.302V196.32l3.06-4.634-3.06-4.634v-2.758a8.302 8.302 0 0 1 16.604 0v22.705a8.302 8.302 0 0 1-8.302 8.302z" data-original="#20396b" class=""></path><path fill="#e09380" d="M241.783 227.086c-2.064 8.241 1.687 17.218 8.859 19.924a12.977 12.977 0 0 0 9.184 0c7.173-2.706 10.923-11.683 8.859-19.924l-6.842-27.32c-1.722-6.878-11.497-6.878-13.22 0z" data-original="#e09380" class=""></path><path fill="#ffffff" d="M215.228 199.381a3.06 3.06 0 0 1-3.06-3.06v-9.268a3.06 3.06 0 1 1 6.12 0v9.268a3.06 3.06 0 0 1-3.06 3.06zM282.872 199.381a3.06 3.06 0 0 1-3.06-3.06v-9.268a3.06 3.06 0 1 1 6.12 0v9.268a3.06 3.06 0 0 1-3.06 3.06z" data-original="#ffffff" class=""></path><path fill="#e09380" d="M256.235 68.403h-77.099v17.258l-20.164 17.621-4.4 107.995v5.464h26.254l-.422-82.146c0-21.127 18.356-38.27 39.483-38.27h36.347z" data-original="#e09380" class=""></path><path fill="#755431" d="m212.168 46.565-34.935 17.307-22.66 33.91V211.24c4.197 0 8.113-1.163 11.483-3.154a13.241 13.241 0 0 1-.133-1.767c0-2.945 1.002-5.707 2.662-7.98.206-5.445 3.781-10.218 8.648-12.24v-57.021c0-21.128 17.127-38.255 38.255-38.255h36.347v-27.92zM202.445 174.475a4.952 4.952 0 0 1-1.943-9.506c8.165-3.479 17.635-4.549 28.148-3.182a4.951 4.951 0 0 1 4.271 5.547 4.948 4.948 0 0 1-5.548 4.27c-8.733-1.136-16.47-.305-22.99 2.473-.632.27-1.29.398-1.938.398z" data-original="#755431"></path><circle cx="193.945" cy="232.21" r="6.055" fill="#e09380" data-original="#e09380" class=""></circle><circle cx="222.235" cy="238.249" r="3.946" fill="#e09380" data-original="#e09380" class=""></circle><circle cx="200.888" cy="252.848" r="5.169" fill="#e09380" data-original="#e09380" class=""></circle><path fill="#755431" d="M304.768 174.475a4.943 4.943 0 0 1-1.938-.397c-6.518-2.777-14.253-3.609-22.99-2.473a4.943 4.943 0 0 1-5.548-4.27 4.95 4.95 0 0 1 4.271-5.547c10.516-1.367 19.985-.297 28.148 3.182a4.948 4.948 0 0 1 2.613 6.495 4.954 4.954 0 0 1-4.556 3.01z" data-original="#755431"></path><circle cx="313.268" cy="232.21" r="6.055" fill="#e09380" data-original="#e09380" class=""></circle><circle cx="284.979" cy="238.249" r="3.946" fill="#e09380" data-original="#e09380" class=""></circle><circle cx="306.326" cy="252.848" r="5.169" fill="#e09380" data-original="#e09380" class=""></circle><path fill="#e09380" d="M256.244 284.268c-9.754 0-19.51-2.883-27.841-8.65a5.178 5.178 0 0 1 5.894-8.514c12.929 8.951 30.968 8.952 43.871.002a5.177 5.177 0 1 1 5.9 8.509c-8.316 5.768-18.069 8.653-27.824 8.653zM256.235 293.425c-6.327 0-11.769 2.295-14.173 5.926-1.065 1.608.418 3.671 2.263 3.111 3.305-1.004 8.242-2.286 11.91-2.286 3.673 0 8.617 1.285 11.922 2.289 1.762.536 3.335-1.404 2.351-2.961-2.352-3.719-7.857-6.079-14.273-6.079zM332.471 52.854H215.487V96.59h98.653a39.711 39.711 0 0 0 18.331-4.464z" data-original="#e09380" class=""></path><path fill="#20396b" d="m172.406 460.512-31.223 15.39 13.704-126.042 11.973-2.831c2.832-.669 5.546 1.478 5.546 4.388z" data-original="#20396b" class=""></path><path fill="#e09380" d="M333.414 92.053v-9.779h-39.599v13.753c17.983 0 32.562 14.578 32.562 32.562v59.319c0 15.808 12.727 28.668 28.534 28.833v-5.501l-5.874-108.256 3.772-5.989z" data-original="#e09380" class=""></path><path fill="#a37544" d="M339.287 86.851v-9.779h-39.599v13.753c17.983 0 32.562 14.578 32.562 32.562v64.473c6.05 1.434 10.709 6.978 10.709 13.396 0 2.018-.478 3.948-1.305 5.698a22.547 22.547 0 0 0 13.256 4.287V97.781l3.772-5.989z" data-original="#a37544" class=""></path><path fill="#122a51" d="M154.886 442.992V349.86l-12.474 2.949a6.554 6.554 0 0 0-5.046 6.378V479.41a239.94 239.94 0 0 0 35.039 16.073v-34.971c-9.675 0-17.519-7.844-17.519-17.52z" data-original="#122a51" class=""></path><path fill="#26447e" d="m345.279 481.768 29.048-19.739V359.187a6.554 6.554 0 0 0-5.046-6.378l-12.474-2.949z" data-original="#26447e" class=""></path><path fill="#20396b" d="M374.327 478.421v-16.392c-9.676 0-17.52-7.844-17.52-17.52V349.86l-11.973-2.831c-2.832-.669-5.546 1.478-5.546 4.388v143.411a240.644 240.644 0 0 0 35.039-16.407z" data-original="#20396b" class=""></path><path fill="#dd5ca2" d="M307.398 253.373c-23.193 0-42.062-18.869-42.062-42.062s18.869-42.062 42.062-42.062c23.192 0 42.062 18.869 42.062 42.062 0 23.192-18.869 42.062-42.062 42.062zm0-74.125c-17.68 0-32.062 14.383-32.062 32.062s14.383 32.062 32.062 32.062 32.062-14.383 32.062-32.062-14.383-32.062-32.062-32.062z" data-original="#dd5ca2" class=""></path><path fill="#db387e" d="M307.398 253.373c-23.193 0-42.062-18.869-42.062-42.062h10c0 17.679 14.383 32.062 32.062 32.062z" data-original="#db387e" class=""></path><path fill="#db387e" d="m242.687 218.343-6.295-7.77 3.885-3.147c9.705-7.863 20.396-7.863 30.101 0l3.885 3.147-6.295 7.771-3.885-3.147c-6.137-4.973-11.374-4.972-17.511 0z" data-original="#db387e" class=""></path><path fill="#dd5ca2" d="M203.255 253.777c-23.193 0-42.062-18.869-42.062-42.062s18.869-42.062 42.062-42.062 42.062 18.869 42.062 42.062-18.869 42.062-42.062 42.062zm0-74.125c-17.68 0-32.062 14.383-32.062 32.062s14.383 32.062 32.062 32.062 32.062-14.383 32.062-32.062-14.382-32.062-32.062-32.062z" data-original="#dd5ca2" class=""></path><path fill="#db387e" d="M203.255 253.777c-23.193 0-42.062-18.869-42.062-42.062h10c0 17.679 14.383 32.062 32.062 32.062z" data-original="#db387e" class=""></path><path fill="#755431" d="M354.032 47.088H209.274l6.213 43.736h98.653c22.032 0 39.892-17.86 39.892-39.892z" data-original="#755431"></path></g></svg>