<svg xmlns="http://www.w3.org/2000/svg" version="1.1" xmlns:xlink="http://www.w3.org/1999/xlink" xmlns:svgjs="http://svgjs.com/svgjs" width="512" height="512" x="0" y="0" viewBox="0 0 512 512" style="enable-background:new 0 0 512 512" xml:space="preserve" class=""><rect width="512" height="512" rx="20" ry="20" fill="#ebdfdf" shape="rounded"></rect><g transform="matrix(0.7,0,0,0.7,76.80000000000001,76.80000000000001)"><path d="M393.467 89.154c0-20.204-14.217-37.079-33.19-41.189-4.751-20.947-23.469-36.59-45.854-36.59-11.701 0-22.395 4.283-30.625 11.353C277.934 13.573 267.68 7.5 256 7.5s-21.934 6.073-27.799 15.228c-8.23-7.07-18.924-11.353-30.625-11.353-22.384 0-41.103 15.643-45.854 36.59-18.973 4.111-33.19 20.986-33.19 41.189 0 14.867 7.703 27.927 19.33 35.432v61.016h236.276v-61.016c11.626-7.505 19.329-20.565 19.329-35.432z" style="" fill="#231f23" data-original="#7a6d79" class="" opacity="1"></path><path d="M360.278 47.965c-4.751-20.947-23.469-36.59-45.854-36.59-5.247 0-10.289.867-15 2.455 15.388 5.18 27.217 18.098 30.854 34.135 18.973 4.111 33.19 20.986 33.19 41.189 0 14.867-7.703 27.927-19.33 35.432v61.016h30v-61.016c11.626-7.505 19.33-20.565 19.33-35.432-.001-20.204-14.217-37.079-33.19-41.189z" style="" fill="#312f31" data-original="#685e68" class="" opacity="1"></path><path d="M399 504.5v-64.062c0-34.881-22.065-64.609-52.999-75.986-8.708-3.203-14.682 13.049-24.501 13.049l-8.328-18H300c-8.284 0-15-6.716-15-15v-44h-58v44c0 8.284-6.716 15-15 15h-13.667L180 381.5c-10.007 0-5.652-20.184-14.499-16.864C134.829 376.148 113 405.744 113 440.438V504.5h52.506l90.494-16 90.41 16H399z" style="" fill="#a3776d" data-original="#ca6e59" class="" opacity="1"></path><path d="M256 322.5c-49.706 0-90-40.294-90-90v-82c0-16.569 13.431-30 30-30h120c16.569 0 30 13.431 30 30v82c0 49.706-40.294 90-90 90zM147.196 166.5c-11.585 1.763-14.882 17.589-13.351 35.473 1.531 17.884 9.851 29.027 20.101 29.027 5.656 0 9.533-3.2 12.054-8.46v-44.483c-4.282-8.953-11.49-12.67-18.804-11.557zM364.804 166.5c-7.314-1.113-14.522 2.604-18.804 11.557v44.483c2.52 5.26 6.398 8.46 12.054 8.46 10.25 0 18.57-11.143 20.101-29.027 1.53-17.884-1.767-33.71-13.351-35.473z" style="" fill="#a3776d" data-original="#ca6e59" class="" opacity="1"></path><path d="M346.41 504.5 346 364.454a80.768 80.768 0 0 0-27.938-4.954h-4.89v44.508c0 31.373-25.51 56.765-56.882 56.621l-1.597-.008c-31.169-.152-56.36-25.452-56.36-56.621v-44.5h-4.396a80.735 80.735 0 0 0-28.432 5.149V504.5H346.41z" style="" fill="#8fcfbf" data-original="#86e8d0" class="" opacity="1"></path><path d="M170.367 20.047c-9.269 6.592-16.046 16.462-18.644 27.918-18.973 4.111-33.19 20.986-33.19 41.189 0 14.867 7.703 27.927 19.33 35.432v48.543M374.138 173.13v-48.543c11.626-7.505 19.33-20.565 19.33-35.432 0-20.204-14.217-37.079-33.19-41.189-4.751-20.947-23.469-36.59-45.854-36.59-11.701 0-22.395 4.283-30.625 11.353C277.934 13.573 267.68 7.5 256 7.5s-21.934 6.073-27.799 15.228c-8.23-7.07-18.924-11.353-30.625-11.353M227 320.5v24c0 8.284-6.716 15-15 15h-18.063c-44.701 0-80.937 36.237-80.937 80.938V504.5M399 504.5v-64.062c0-44.701-36.237-80.938-80.938-80.938H300c-8.284 0-15-6.716-15-15v-24" style="stroke-width:15;stroke-linecap:round;stroke-linejoin:round;stroke-miterlimit:10;" fill="none" stroke="#000000" stroke-width="15" stroke-linecap="round" stroke-linejoin="round" stroke-miterlimit="10" data-original="#000000" class=""></path><path d="M256 322.5h0c-49.706 0-90-40.294-90-90v-82c0-16.569 13.431-30 30-30h120c16.569 0 30 13.431 30 30v82c0 49.706-40.294 90-90 90zM147.196 166.5c-11.585 1.763-14.882 17.589-13.351 35.473 1.531 17.884 9.851 29.027 20.101 29.027 5.656 0 9.533-3.2 12.054-8.46v-44.483c-4.282-8.953-11.49-12.67-18.804-11.557zM364.804 166.5c-7.314-1.113-14.522 2.604-18.804 11.557v44.483c2.52 5.26 6.398 8.46 12.054 8.46 10.25 0 18.57-11.143 20.101-29.027 1.53-17.884-1.767-33.71-13.351-35.473z" style="stroke-width:15;stroke-linecap:round;stroke-linejoin:round;stroke-miterlimit:10;" fill="none" stroke="#000000" stroke-width="15" stroke-linecap="round" stroke-linejoin="round" stroke-miterlimit="10" data-original="#000000" class=""></path><path d="M250.063 217.667c-1 6.667 4 13.333 12 13.333M238.343 261.473c10.808 6.613 24.505 6.614 35.313.001M216.344 177.66v8.285M295.656 177.66v8.285M165.506 364.649v139.236M285.001 452.974c-8.431 4.91-18.245 7.704-28.71 7.656l-1.597-.008c-31.169-.152-56.36-25.452-56.36-56.621V359.5M313.172 359.5v44.508c0 11.765-3.587 22.689-9.726 31.74M346.41 504.5 346 364.454" style="stroke-width:15;stroke-linecap:round;stroke-linejoin:round;stroke-miterlimit:10;" fill="none" stroke="#000000" stroke-width="15" stroke-linecap="round" stroke-linejoin="round" stroke-miterlimit="10" data-original="#000000" class=""></path></g></svg>