<svg xmlns="http://www.w3.org/2000/svg" version="1.1" xmlns:xlink="http://www.w3.org/1999/xlink" xmlns:svgjs="http://svgjs.com/svgjs" width="512" height="512" x="0" y="0" viewBox="0 0 512 512" style="enable-background:new 0 0 512 512" xml:space="preserve" class=""><rect width="512" height="512" rx="20" ry="20" fill="#eb9b9b" shape="rounded"></rect><g transform="matrix(0.7,0,0,0.7,76.79999771118167,76.79998884201055)"><path d="M399 504.5v-64.062c0-44.701-36.237-80.938-80.938-80.938H300c-8.284 0-15-6.716-15-15v-44h-58v44c0 8.284-6.716 15-15 15h-18.063c-44.701 0-80.937 36.237-80.937 80.938V504.5" style="stroke-width: 16;" fill="#ffb09e" data-original="#ffb09e" stroke-width="16" class=""></path><path d="M399 504.5v-64.062c0-44.701-36.237-80.938-80.938-80.938H193.937c-44.701 0-80.937 36.237-80.937 80.938V504.5h286z" style="stroke-width: 16;" fill="#fe93d3" data-original="#fe93d3" stroke-width="16" class=""></path><path d="M227 340.725c0 19.775 29 18.775 29 18.775 0 39-71 40.5-71 0l42-18.775z" style="stroke-width: 16;" fill="#f3f0f3" data-original="#f3f0f3" stroke-width="16"></path><path d="M284.999 340.725c0 16.775-29 18.775-29 18.775 0 39 71 40.5 71 0l-42-18.775zM255.999 461.5" style="stroke-width: 16;" fill="#f3f0f3" data-original="#f3f0f3" stroke-width="16"></path><path d="M157.193 504.5s-5.369-17.549-.997-39H113v39h44.193zM399 504.5v-39h-43.321c4.392 20.744-.388 37.507-.836 39H399z" style="stroke-width: 16;" fill="#ffb09e" data-original="#ffb09e" stroke-width="16" class=""></path><path d="M168.162 32.84C138.396.605 91.155-.739 59.228 29.816c-36.518 34.949-26.461 90.537 3.051 126.519 6.051 7.378 9.216 16.704 9.216 26.246v74.926c0 19.33 15.67 35 35 35v-49 73c0 20.435 16.565 37 37 37v-198h24.667V32.84zM343.838 32.587C373.603.352 420.845-.992 452.771 29.563c36.518 34.949 26.461 90.537-3.051 126.519-6.051 7.378-9.216 16.704-9.216 26.246v74.926c0 19.33-15.67 35-35 35v-49 73c0 20.435-16.565 37-37 37v-198h-24.667V32.587z" style="stroke-width: 16;" fill="#ca6e59" data-original="#ca6e59" stroke-width="16"></path><path d="M256 322c-49.706 0-90-40.294-90-90V84.333h180V232c0 49.706-40.294 90-90 90z" style="stroke-width: 16;" fill="#ffb09e" data-original="#ffb09e" stroke-width="16" class=""></path><path d="M256.092 89s17.657 72 90 88.557v44.483c33.465-.113 47.533-45.591 47.533-79.055 0-73.318-52.293-134.756-137.579-135.484-85.286.728-137.579 66.089-137.579 135.483 0 33.465 14.068 78.942 47.533 79.055v-44.483C238.343 161 256 89 256 89h.092z" style="stroke-width: 16;" fill="#ca6e59" data-original="#ca6e59" stroke-width="16"></path><path d="M256.046 7.5c-5.044.043-9.969.32-14.779.803 76.243 7.464 122.358 65.833 122.358 134.682 0 20.77-5.422 46.162-17.533 62.469v16.586c33.465-.114 47.533-45.591 47.533-79.055 0-73.318-52.293-134.756-137.579-135.485z" style="stroke-width: 16;" fill="#bb5d4c" data-original="#bb5d4c" stroke-width="16"></path><path d="M147.196 166c-11.585 1.763-14.882 17.589-13.351 35.473 1.531 17.884 9.851 29.027 20.101 29.027 5.656 0 9.533-3.2 12.054-8.46l5.925-23.886L166 177.557c-4.282-8.953-11.49-12.67-18.804-11.557zM364.804 166c-7.314-1.113-14.522 2.604-18.804 11.557l-7 20.597 7 23.886c2.52 5.26 6.398 8.46 12.054 8.46 10.25 0 18.57-11.143 20.101-29.027 1.53-17.884-1.767-33.71-13.351-35.473z" style="stroke-width: 16;" fill="#ffb09e" data-original="#ffb09e" stroke-width="16" class=""></path><path d="M155.614 12.963c-5.237 6.467-9.943 20.037-8.762 29.789-9.785.873-22.08 8.297-27.317 14.764-7.239 8.939-2.196 17.529 6.743 24.768s18.389 10.385 25.628 1.446c5.237-6.467 9.943-20.037 8.762-29.789 9.785-.873 22.08-8.297 27.317-14.764 7.239-8.939 2.196-17.529-6.743-24.767s-18.389-10.386-25.628-1.447zM356.386 12.963c5.237 6.467 9.943 20.037 8.762 29.789 9.785.873 22.08 8.297 27.317 14.764 7.239 8.939 2.196 17.529-6.743 24.768s-18.389 10.385-25.628 1.446c-5.237-6.467-9.943-20.037-8.762-29.789-9.785-.873-22.08-8.297-27.317-14.764-7.239-8.939-2.196-17.529 6.743-24.767 8.939-7.239 18.389-10.386 25.628-1.447z" style="stroke-width: 16;" fill="#fe93d3" data-original="#fe93d3" stroke-width="16" class=""></path><path d="M227 318.5v26M285 344.5v-26M184.651 360.027C144.324 364.634 113 398.878 113 440.438V504.5M399 504.5v-64.062c0-41.27-30.889-75.326-70.808-80.31M227 340.725c0 19.775 29 18.775 29 18.775 0 39-71 40.5-71 0l42-18.775z" style="stroke-width: 16; stroke-linecap: round; stroke-linejoin: round; stroke-miterlimit: 10;" fill="none" stroke="#000000" stroke-width="16" stroke-linecap="round" stroke-linejoin="round" stroke-miterlimit="10" data-original="#000000" class=""></path><path d="M320.131 378.238c4.242-4.714 6.868-10.949 6.868-18.738l-42-18.775c0 16.775-29 18.775-29 18.775 0 21.021 20.627 31.148 39.646 29.675M255.999 408.833h0M255.999 435.167h0M255.999 461.5h0M157.193 504.5s-5.369-17.549-.997-39H113v39M399 504.5v-39h-43.321c4.392 20.744-.388 37.507-.836 39M59.228 29.816c-36.518 34.949-26.461 90.537 3.051 126.519 6.051 7.378 9.216 16.704 9.216 26.246v74.926c0 19.33 15.67 35 35 35h0v-49 73c0 20.435 16.565 37 37 37h0V226.333M151.773 19.175c-21.654-13.587-47.952-15.097-70.946-4.286M360.133 18.98C389.018.798 426.199 4.132 452.772 29.562c36.518 34.949 26.461 90.537-3.051 126.519-6.051 7.378-9.216 16.704-9.216 26.246v74.926c0 19.33-15.67 35-35 35h0v-49 73c0 20.435-16.565 37-37 37h0V226.04M166 222.04V232c0 49.706 40.294 90 90 90h0c49.706 0 90-40.294 90-90v-9.96" style="stroke-width: 16; stroke-linecap: round; stroke-linejoin: round; stroke-miterlimit: 10;" fill="none" stroke="#000000" stroke-width="16" stroke-linecap="round" stroke-linejoin="round" stroke-miterlimit="10" data-original="#000000" class=""></path><path d="M130.949 85.629c-8.169 17.829-12.482 37.426-12.482 57.355 0 19.247 4.654 42.467 14.974 58.745M320.561 21.826C302.043 12.862 280.388 7.708 256.046 7.5c-24.383.208-46.069 5.7-64.607 15.057M378.625 201.771c10.339-16.28 15.001-39.524 15.001-58.787 0-20.387-4.043-39.856-11.715-57.356M166 177.557C238.343 161 256 89 256 89h.092s17.657 72 90 88.557" style="stroke-width: 16; stroke-linecap: round; stroke-linejoin: round; stroke-miterlimit: 10;" fill="none" stroke="#000000" stroke-width="16" stroke-linecap="round" stroke-linejoin="round" stroke-miterlimit="10" data-original="#000000" class=""></path><path d="M147.196 166c-11.585 1.763-14.882 17.589-13.351 35.473 1.531 17.884 9.851 29.027 20.101 29.027 5.656 0 9.533-3.2 12.054-8.46v-44.483c-4.282-8.953-11.49-12.67-18.804-11.557zM364.804 166c-7.314-1.113-14.522 2.604-18.804 11.557v44.483c2.52 5.26 6.398 8.46 12.054 8.46 10.25 0 18.57-11.143 20.101-29.027 1.53-17.884-1.767-33.71-13.351-35.473zM250.063 217.167c-1 6.667 4 13.333 12 13.333M238.343 260.973c10.808 6.613 24.505 6.614 35.313.001M216.344 177.16v8.285M295.656 177.16v8.285M155.614 12.963c-5.237 6.467-9.943 20.037-8.762 29.789-9.785.873-22.08 8.297-27.317 14.764-7.239 8.939-2.196 17.529 6.743 24.768s18.389 10.385 25.628 1.446c5.237-6.467 9.943-20.037 8.762-29.789 9.785-.873 22.08-8.297 27.317-14.764 7.239-8.939 2.196-17.529-6.743-24.767s-18.389-10.386-25.628-1.447zM356.386 12.963c5.237 6.467 9.943 20.037 8.762 29.789 9.785.873 22.08 8.297 27.317 14.764 7.239 8.939 2.196 17.529-6.743 24.768s-18.389 10.385-25.628 1.446c-5.237-6.467-9.943-20.037-8.762-29.789-9.785-.873-22.08-8.297-27.317-14.764-7.239-8.939-2.196-17.529 6.743-24.767 8.939-7.239 18.389-10.386 25.628-1.447zM163 444.5s-4.95 12.812-6.805 21M355.608 465.5c-2.805-11-6.805-21-6.805-21" style="stroke-width: 16; stroke-linecap: round; stroke-linejoin: round; stroke-miterlimit: 10;" fill="none" stroke="#000000" stroke-width="16" stroke-linecap="round" stroke-linejoin="round" stroke-miterlimit="10" data-original="#000000" class=""></path></g></svg>