<svg xmlns="http://www.w3.org/2000/svg" version="1.1" xmlns:xlink="http://www.w3.org/1999/xlink" xmlns:svgjs="http://svgjs.com/svgjs" width="512" height="512" x="0" y="0" viewBox="0 0 66 66" style="enable-background:new 0 0 512 512" xml:space="preserve" class=""><g><path d="M48.3 60.99H7.69a2.88 2.88 0 0 1-2.82-3.48c.27-1.35 1.52-2.28 2.89-2.28h4.26V52.6h-4.1c-3.02 0-5.65 2.33-5.74 5.34a5.506 5.506 0 0 0 5.51 5.67H48.3c.73 0 1.31-.59 1.31-1.31 0-.73-.58-1.31-1.31-1.31z" fill="#232020" data-original="#000000" opacity="1" class=""></path><path d="M48.3 52.6H20.11v2.63H48.3c.73 0 1.31-.59 1.31-1.31 0-.73-.58-1.32-1.31-1.32zM20.47 44.81c4.87 0 9.75-1.86 13.45-5.56.34-.34.34-.88 0-1.22s-.88-.34-1.22 0c-6.75 6.75-17.73 6.75-24.47 0-6.75-6.75-6.75-17.73 0-24.47.34-.34.34-.88 0-1.22a.857.857 0 0 0-1.22 0c-7.42 7.42-7.42 19.49 0 26.91 3.71 3.71 8.58 5.56 13.46 5.56zM20.61 16.45c-.54.34-.85.7-.88 1-.03.33.31.77.8 1.02.4.21.89.33 1.4.46.3.08.6.15.9.25 1.31.41 2.2 1.14 2.59 2.11.15.37.22.75.28 1.09.04.25.12.68.21.74.12.08.71-.15.96-.24.14-.06.29-.11.43-.16 2.18-.75 4.77.14 6.02 2.07.28.44.47.88.66 1.31.19.44.38.86.62 1.19.13.17.29.32.46.46.08-.64.14-1.28.14-1.94 0-7.16-5.11-13.12-11.89-14.44.35 1.29.14 2.6-.61 3.55-.49.6-1.11.97-1.66 1.3-.15.06-.29.14-.43.23z" fill="#232020" data-original="#000000" opacity="1" class=""></path><path d="M5.9 27.82c.23-.15.45-.28.68-.39 1.1-.51 2.24-.53 3.15-.08 1.03.51 1.71 1.57 2.08 3.23l.09.44c.15.75.29 1.47.66 1.96.11.14.31.26.57.33 1.72.47 1.98.01 2.56-1 .31-.54.66-1.15 1.29-1.59.7-.49 1.64-.65 2.7-.48 3.38.54 3.26 3.25 3.21 4.55-.01.18-.02.4-.02.59.09-.08.19-.18.27-.26.75-.73 2.16-2.1 4.41-.93 1.2.62 1.95 1.81 2.03 3.14 2.38-1.89 4.16-4.49 5.02-7.49-.66-.33-1.22-.8-1.64-1.38-.37-.5-.61-1.04-.84-1.57-.17-.38-.32-.73-.51-1.03-.75-1.16-2.36-1.72-3.68-1.26-.12.04-.24.09-.36.13-.76.29-1.79.69-2.76.05-.82-.53-.97-1.42-1.09-2.07-.04-.26-.09-.5-.16-.67-.21-.53-.93-.82-1.34-.95-.26-.08-.52-.15-.79-.21-.6-.15-1.21-.31-1.82-.62-1.26-.64-2-1.82-1.88-3.01.1-.95.7-1.78 1.8-2.48.16-.1.31-.19.47-.29.45-.26.87-.51 1.12-.83.53-.66.36-1.72-.01-2.43-.02-.04-.05-.08-.07-.12-.19-.01-.38-.03-.58-.03-8.13 0-14.72 6.59-14.72 14.72.01.69.07 1.37.16 2.03z" fill="#232020" data-original="#000000" opacity="1" class=""></path><path d="M19.38 32.21c-.54-.08-.98-.03-1.24.15s-.46.54-.7.95c-.64 1.12-1.62 2.81-4.82 1.94-.7-.19-1.27-.56-1.65-1.07-.63-.86-.84-1.87-1.02-2.76l-.08-.41c-.23-1.01-.58-1.64-1.03-1.87-.35-.18-.89-.14-1.4.1-.28.13-.57.32-.88.58-.06.05-.14.08-.21.11 1.79 6.11 7.43 10.58 14.12 10.58 2.12 0 4.12-.46 5.94-1.26a.86.86 0 0 1 .3-.23c.56-.29.9-.84.9-1.48 0-.67-.35-1.25-.94-1.56-.95-.49-1.33-.18-2.12.58-.56.54-1.49 1.45-2.7.81-1.04-.54-.99-1.72-.95-2.67.06-1.5.03-2.24-1.52-2.49zM28.76 49.29c0-.95-.77-1.72-1.72-1.72h-5.28v-1.81h-2.58v1.81H13.9c-.95 0-1.72.77-1.72 1.72v1.31h16.59v-1.31zM57.56 12.74V9.12c-4.89-.84-9.91-.84-14.8 0v3.62a21.87 21.87 0 0 0 14.8 0zM6.83 57.9c-.08.36.05.62.17.76.17.21.42.33.69.33h4.33v-1.76H7.76c-.45 0-.86.29-.93.67zM20.11 57.23v1.76h26.95a5.77 5.77 0 0 1 0-1.76zM16.06 56.89l2.05 1.55V52.6h-4.09v5.84zM57.89 28.55h-.93l-.13.5c-.77 3-3.46 5.1-6.55 5.1s-5.79-2.1-6.55-5.1l-.13-.5h-.93c-2.96 0-5.37 2.4-5.37 5.37v5.37h5.17v-4.42c0-.55.45-1 1-1s1 .45 1 1v4.42h11.79v-4.42c0-.55.45-1 1-1s1 .45 1 1v4.42h4.99v-5.37a5.35 5.35 0 0 0-5.36-5.37z" fill="#232020" data-original="#000000" opacity="1" class=""></path><path d="M50.29 29.28c-1.37 0-2.65-.35-3.77-.96-.25.14-.53.23-.84.23.53 2.07 2.39 3.6 4.62 3.6s4.09-1.53 4.62-3.6c-.31 0-.59-.09-.84-.23-1.15.61-2.43.96-3.79.96zM37.98 8.76l2.78 1.17v-.98c0-.88.63-1.63 1.5-1.78l.16-.03c2.55-.44 5.15-.66 7.74-.66s5.19.22 7.74.66l.16.03c.87.15 1.5.9 1.5 1.78v.98l2.78-1.17a.788.788 0 0 0 0-1.45L51.07 2.58c-.58-.25-1.24-.25-1.83 0L37.98 7.31a.788.788 0 0 0 0 1.45zM56.21 20.84c.62 0 2.25-2.96 2.25-3.58s-.5-1.12-1.12-1.12v-1.22c-4.1 1.3-8.47 1.48-12.83.46-.53-.12-1.06-.29-1.58-.46v1.28c-.47.13-.82.55-.82 1.06 0 .62 1.63 3.58 2.25 3.58v.51c0 3.28 2.65 5.93 5.93 5.93s5.93-2.66 5.93-5.93v-.51zm-8.84-1.91c0-.41.34-.75.75-.75s.75.34.75.75-.34.75-.75.75c-.42 0-.75-.33-.75-.75zm5.37 4.32c-.66.66-1.53 1.02-2.46 1.02s-1.8-.36-2.46-1.02c-.29-.29-.29-.77 0-1.06s.77-.29 1.06 0c.75.75 2.05.75 2.79 0 .29-.29.77-.29 1.06 0s.31.77.01 1.06zm-.29-3.57c-.41 0-.75-.34-.75-.75s.34-.75.75-.75.75.34.75.75c0 .42-.33.75-.75.75zM63.55 13.45v-3.08c-.14.09-.28.17-.44.24l-1.56.66v2.19a2 2 0 1 0 3 1.73 2 2 0 0 0-1-1.74z" fill="#232020" data-original="#000000" opacity="1" class=""></path></g></svg>