<svg xmlns="http://www.w3.org/2000/svg" version="1.1" xmlns:xlink="http://www.w3.org/1999/xlink" xmlns:svgjs="http://svgjs.com/svgjs" width="512" height="512" x="0" y="0" viewBox="0 0 64 64" style="enable-background:new 0 0 512 512" xml:space="preserve" class=""><rect width="64" height="64" fill="#8d949a" shape="square"></rect><g transform="matrix(0.6,0,0,0.6,12.8,12.8)"><linearGradient id="a" x1="32" x2="32" y1="63" y2="1" gradientUnits="userSpaceOnUse"><stop stop-opacity="1" stop-color="#572285" offset="0.138996138996139"></stop><stop stop-opacity="1" stop-color="#091a1e" offset="1"></stop></linearGradient><path fill="url(#a)" d="M18 13V9c0-2.206 1.794-4 4-4s4 1.794 4 4h-2c0-1.103-.897-2-2-2s-2 .897-2 2v4c0 1.103.897 2 2 2s2-.897 2-2h2c0 2.206-1.794 4-4 4s-4-1.794-4-4zm13.5 4h1c1.93 0 3.5-1.57 3.5-3.5S34.43 10 32.5 10h-1c-.827 0-1.5-.673-1.5-1.5S30.673 7 31.5 7h1c.827 0 1.5.673 1.5 1.5V9h2v-.5C36 6.57 34.43 5 32.5 5h-1C29.57 5 28 6.57 28 8.5s1.57 3.5 3.5 3.5h1c.827 0 1.5.673 1.5 1.5s-.673 1.5-1.5 1.5h-1c-.827 0-1.5-.673-1.5-1.5V13h-2v.5c0 1.93 1.57 3.5 3.5 3.5zm10 0h1c1.93 0 3.5-1.57 3.5-3.5S44.43 10 42.5 10h-1c-.827 0-1.5-.673-1.5-1.5S40.673 7 41.5 7h1c.827 0 1.5.673 1.5 1.5V9h2v-.5C46 6.57 44.43 5 42.5 5h-1C39.57 5 38 6.57 38 8.5s1.57 3.5 3.5 3.5h1c.827 0 1.5.673 1.5 1.5s-.673 1.5-1.5 1.5h-1c-.827 0-1.5-.673-1.5-1.5V13h-2v.5c0 1.93 1.57 3.5 3.5 3.5zM63 16v32c0 2.757-2.243 5-5 5H42v4h1c2.757 0 5 2.243 5 5v1H16v-1c0-2.757 2.243-5 5-5h1v-4H6c-2.757 0-5-2.243-5-5V16c0-2.757 2.243-5 5-5h8V4c0-1.654 1.346-3 3-3h30c1.654 0 3 1.346 3 3v7h8c2.757 0 5 2.243 5 5zm-49 2v-1H7v26h50V17h-7v1c0 1.654-1.346 3-3 3H17c-1.654 0-3-1.346-3-3zm2 0c0 .552.449 1 1 1h30c.551 0 1-.448 1-1V4c0-.552-.449-1-1-1H17c-.551 0-1 .448-1 1zm27 41H21a3.006 3.006 0 0 0-2.829 2h27.657A3.004 3.004 0 0 0 43 59zm-3-6H24v4h16zm-3-4h-2v2h2zm-4 0h-2v2h2zm-4 0h-2v2h2zm32-33c0-1.654-1.346-3-3-3h-8v2h7c1.103 0 2 .897 2 2v26c0 1.103-.897 2-2 2H7c-1.103 0-2-.897-2-2V17c0-1.103.897-2 2-2h7v-2H6c-1.654 0-3 1.346-3 3v32c0 1.654 1.346 3 3 3h19v-4h14v4h19c1.654 0 3-1.346 3-3zM14 33c1.103 0 2 .897 2 2v2c0 2.206 1.794 4 4 4v-2c-1.103 0-2-.897-2-2v-2a3.974 3.974 0 0 0-1.382-3A3.974 3.974 0 0 0 18 29v-2c0-1.103.897-2 2-2v-2c-2.206 0-4 1.794-4 4v2c0 1.103-.897 2-2 2zm34 4v-2c0-1.103.897-2 2-2v-2c-1.103 0-2-.897-2-2v-2c0-2.206-1.794-4-4-4v2c1.103 0 2 .897 2 2v2c0 1.201.542 2.266 1.382 3A3.974 3.974 0 0 0 46 35v2c0 1.103-.897 2-2 2v2c2.206 0 4-1.794 4-4zm-27-5c0-1.654 1.346-3 3-3s3 1.346 3 3-1.346 3-3 3-3-1.346-3-3zm2 0a1.001 1.001 0 1 0 1-1c-.551 0-1 .448-1 1zm6 0c0-1.654 1.346-3 3-3s3 1.346 3 3-1.346 3-3 3-3-1.346-3-3zm2 0a1.001 1.001 0 1 0 1-1c-.551 0-1 .448-1 1zm6 0c0-1.654 1.346-3 3-3s3 1.346 3 3-1.346 3-3 3-3-1.346-3-3zm2 0a1.001 1.001 0 1 0 1-1c-.551 0-1 .448-1 1z" data-original="url(#a)" class=""></path></g></svg>