<svg xmlns="http://www.w3.org/2000/svg" version="1.1" xmlns:xlink="http://www.w3.org/1999/xlink" xmlns:svgjs="http://svgjs.com/svgjs" width="512" height="512" x="0" y="0" viewBox="0 0 312.553 312.553" style="enable-background:new 0 0 512 512" xml:space="preserve" class=""><g><path d="M302.553 0H10C4.477 0 0 4.478 0 10v292.553c0 5.522 4.477 10 10 10h292.553c5.523 0 10-4.478 10-10V10c0-5.522-4.477-10-10-10zM122.031 193.288c-9.481 8.296-21.592 12.865-34.102 12.865-28.108 0-50.976-22.4-50.976-49.934 0-27.47 22.868-49.818 50.976-49.818a51.547 51.547 0 0 1 33.987 12.756c3.874 3.392 4.263 9.283.87 13.156a9.322 9.322 0 0 1-13.157.869 32.912 32.912 0 0 0-21.7-8.135c-17.827 0-32.33 13.983-32.33 31.172 0 17.251 14.503 31.286 32.33 31.286 7.992 0 15.742-2.931 21.822-8.251 3.875-3.393 9.765-2.998 13.156.877 3.391 3.876 2.999 9.767-.876 13.157zm63.92-27.688h-18.789v18.79c0 5.149-4.174 9.323-9.324 9.323s-9.324-4.174-9.324-9.323V165.6h-18.788a9.323 9.323 0 1 1 0-18.646h18.788v-18.789c0-5.149 4.174-9.323 9.324-9.323s9.324 4.174 9.324 9.323v18.789h18.789a9.323 9.323 0 1 1 0 18.646zm80.325 0h-18.789v18.79a9.323 9.323 0 0 1-9.324 9.323c-5.149 0-9.324-4.174-9.324-9.323V165.6h-18.788a9.323 9.323 0 1 1 0-18.646h18.788v-18.789a9.323 9.323 0 0 1 9.324-9.323c5.149 0 9.324 4.174 9.324 9.323v18.789h18.789a9.323 9.323 0 1 1 0 18.646z" fill="#192a65" data-original="#000000" class="" opacity="1"></path></g></svg>