<svg xmlns="http://www.w3.org/2000/svg" version="1.1" xmlns:xlink="http://www.w3.org/1999/xlink" xmlns:svgjs="http://svgjs.com/svgjs" width="512" height="512" x="0" y="0" viewBox="0 0 512 512" style="enable-background:new 0 0 512 512" xml:space="preserve" class=""><rect width="512" height="512" fill="#606468" shape="square"></rect><g transform="matrix(0.68,0,0,0.68,81.91999999999999,81.91999999999999)"><path fill="#40a988" d="M512 256c0 141.387-114.613 256-256 256S0 397.387 0 256 114.613 0 256 0s256 114.613 256 256zm0 0" data-original="#40ad8b" class="" opacity="1"></path><path fill="#025f42" d="M512 256c0-8.508-.426-16.914-1.234-25.21L401.973 122 110.027 390 230.79 510.766A259.788 259.788 0 0 0 256 512c141.387 0 256-114.613 256-256zm0 0" data-original="#007752" class="" opacity="1"></path><path fill="#e64c38" d="m401.973 167.617-68.422 22.809L356.355 122h45.618zm0 0" data-original="#e64c38"></path><path fill="#656365" d="M256 122h100.355v68.426h-134.57zm0 0" data-original="#656365"></path><path fill="#7f7d7f" d="M256 122H110.027v45.617L256 190.426zm0 0" data-original="#7f7d7f"></path><path fill="#d1d0d1" d="M401.973 390V167.617H256L216.086 278.81 256 390zm0 0" data-original="#d1d0d1"></path><path fill="#e8e8e8" d="M110.027 167.617H256V390H110.027zm0 0" data-original="#e8e8e8" class=""></path><path fill="#fffbe6" d="M384.867 372.895V184.723H256l-35.238 94.086L256 372.895zm0 0" data-original="#fffbe6" class=""></path><path fill="#ffffff" d="M127.133 184.723H256v188.172H127.133zm0 0" data-original="#ffffff" class=""></path><path fill="#101011" d="M334.402 344.383c-17.293 0-31.359-14.07-31.359-31.363v-14.254h17.105v14.254c0 7.863 6.395 14.257 14.254 14.257s14.254-6.394 14.254-14.257v-11.403c0-7.86-6.394-14.254-14.254-14.254-17.293 0-31.363-14.07-31.363-31.363v-11.402c0-17.293 14.07-31.364 31.363-31.364s31.364 14.07 31.364 31.364v8.55H348.66v-8.55c0-7.864-6.394-14.258-14.254-14.258s-14.258 6.394-14.258 14.258V256c0 7.86 6.399 14.254 14.258 14.254 17.293 0 31.36 14.07 31.36 31.363v11.403c0 17.293-14.07 31.363-31.364 31.363zm0 0" data-original="#101011"></path><path fill="#39373b" d="M177.598 344.383c-17.293 0-31.364-14.07-31.364-31.363v-68.426c0-17.293 14.07-31.36 31.364-31.36 17.293 0 31.359 14.067 31.359 31.36v8.554h-17.105v-8.554c0-7.86-6.395-14.254-14.254-14.254s-14.254 6.394-14.254 14.254v68.426c0 7.863 6.394 14.257 14.254 14.257s14.254-6.394 14.254-14.257v-19.957h17.105v19.957c0 17.293-14.066 31.363-31.36 31.363zm0 0" data-original="#39373b"></path><path fill="#101011" d="M287.363 301.617v11.403c0 17.296-14.066 31.363-31.363 31.363l-5.703-8.555 5.703-8.55c7.863 0 14.254-6.391 14.254-14.255v-11.406c0-7.863-6.39-14.254-14.254-14.254l-5.703-8.933 5.703-8.172c17.297-.004 31.363 14.062 31.363 31.36zM287.363 244.598v8.55h-17.105v-8.55c0-7.864-6.395-14.258-14.258-14.258l-5.7-8.55 5.7-8.556c17.297 0 31.363 14.067 31.363 31.364zm0 0" data-original="#101011"></path><g fill="#39373b"><path d="M256 327.277v17.106c-17.297 0-31.363-14.067-31.363-31.363v-14.254h17.105v14.254c.004 7.867 6.395 14.257 14.258 14.257zM256 270.254v17.105c-17.297 0-31.363-14.066-31.363-31.359v-11.406c0-17.293 14.066-31.36 31.363-31.36v17.106c-7.863 0-14.254 6.39-14.254 14.254V256c0 7.863 6.39 14.254 14.254 14.254zm0 0" fill="#39373b" data-original="#39373b"></path></g></g></svg>