<svg xmlns="http://www.w3.org/2000/svg" version="1.1" xmlns:xlink="http://www.w3.org/1999/xlink" xmlns:svgjs="http://svgjs.com/svgjs" width="512" height="512" x="0" y="0" viewBox="0 0 512 512" style="enable-background:new 0 0 512 512" xml:space="preserve" class=""><rect width="512" height="512" fill="#71787e" shape="square"></rect><g transform="matrix(0.6299999999999998,0,0,0.6299999999999998,94.72000352859502,94.72000000000006)"><path d="M311.376 425.22H202.624l-23.726 78.102h156.204z" style="" transform="translate(-1)" fill="#95a5a5" data-original="#95a5a5" class=""></path><path d="M508.661 53.717v328.114H5.339V53.717C4.948 43.7 12.684 35.23 22.695 34.712h468.61c10.011.517 17.747 8.987 17.356 19.005z" style="" transform="translate(-1)" fill="#5e5f62" data-original="#5e5f62" class=""></path><path d="M508.661 364.475v50.419c.391 10.017-7.345 18.487-17.356 19.005H22.695c-10.011-.518-17.747-8.988-17.356-19.005v-50.419h503.322zM352.458 512H161.542a8.678 8.678 0 0 1-8.678-8.678 8.678 8.678 0 0 1 8.678-8.678h190.915a8.678 8.678 0 0 1 8.678 8.678 8.677 8.677 0 0 1-8.677 8.678z" style="" transform="translate(-1)" fill="#bdc3c7" data-original="#bdc3c7" class=""></path><path d="M57.407 242.983H40.051c-4.793 0-8.678-3.885-8.678-8.678s3.885-8.678 8.678-8.678h17.356a8.678 8.678 0 0 1 0 17.356z" style="" transform="translate(-1)" fill="#67b9cc" data-original="#67b9cc"></path><path d="M126.831 277.695h-17.356a8.678 8.678 0 0 1-8.678-8.678 8.678 8.678 0 0 1 8.678-8.678h17.356a8.679 8.679 0 0 1 0 17.356z" style="" transform="translate(-1)" fill="#f29c1f" data-original="#f29c1f"></path><path d="M83.441 277.695h-43.39a8.678 8.678 0 0 1-8.678-8.678 8.678 8.678 0 0 1 8.678-8.678h43.39a8.678 8.678 0 0 1 0 17.356z" style="" transform="translate(-1)" fill="#67b9cc" data-original="#67b9cc"></path><path d="M126.831 242.983H92.119c-4.793 0-8.678-3.885-8.678-8.678s3.885-8.678 8.678-8.678h34.712a8.678 8.678 0 0 1 0 17.356zM176.034 312.407h-66.559a8.678 8.678 0 0 1-8.678-8.678 8.678 8.678 0 0 1 8.678-8.678h66.559a8.678 8.678 0 0 1 8.678 8.678 8.678 8.678 0 0 1-8.678 8.678z" style="" transform="translate(-1)" fill="#f29c1f" data-original="#f29c1f"></path><path d="M74.763 312.407H40.051a8.678 8.678 0 0 1-8.678-8.678 8.678 8.678 0 0 1 8.678-8.678h34.712a8.678 8.678 0 0 1 0 17.356z" style="" transform="translate(-1)" fill="#67b9cc" data-original="#67b9cc"></path><path d="M473.949 242.983h-17.356c-4.793 0-8.678-3.885-8.678-8.678s3.885-8.678 8.678-8.678h17.356c4.793 0 8.678 3.885 8.678 8.678s-3.885 8.678-8.678 8.678z" style="" transform="translate(-1)" fill="#e6e7e8" data-original="#e6e7e8"></path><path d="M404.525 277.695h-17.356a8.678 8.678 0 0 1-8.678-8.678 8.678 8.678 0 0 1 8.678-8.678h17.356a8.678 8.678 0 0 1 8.678 8.678 8.678 8.678 0 0 1-8.678 8.678z" style="" transform="translate(-1)" fill="#24ae5f" data-original="#24ae5f"></path><path d="M473.949 277.695h-43.39a8.678 8.678 0 0 1-8.678-8.678 8.678 8.678 0 0 1 8.678-8.678h43.39a8.678 8.678 0 0 1 8.678 8.678 8.678 8.678 0 0 1-8.678 8.678z" style="" transform="translate(-1)" fill="#e6e7e8" data-original="#e6e7e8"></path><path d="M421.881 242.983h-34.712c-4.793 0-8.678-3.885-8.678-8.678s3.885-8.678 8.678-8.678h34.712c4.793 0 8.678 3.885 8.678 8.678s-3.885 8.678-8.678 8.678zM404.525 312.407h-66.559a8.678 8.678 0 0 1-8.678-8.678 8.678 8.678 0 0 1 8.678-8.678h66.559a8.678 8.678 0 0 1 8.678 8.678 8.678 8.678 0 0 1-8.678 8.678z" style="" transform="translate(-1)" fill="#24ae5f" data-original="#24ae5f"></path><path d="M473.949 312.407h-34.712a8.678 8.678 0 0 1-8.678-8.678 8.678 8.678 0 0 1 8.678-8.678h34.712a8.678 8.678 0 0 1 8.678 8.678 8.678 8.678 0 0 1-8.678 8.678z" style="" transform="translate(-1)" fill="#e6e7e8" data-original="#e6e7e8"></path><path d="m263.837 335.511 105.465-45.199a17.357 17.357 0 0 0 10.393-13.864l31.152-257.003A17.356 17.356 0 0 0 393.617 0H120.383a17.357 17.357 0 0 0-17.23 19.444l31.152 257.003a17.357 17.357 0 0 0 10.393 13.864l105.465 45.199a17.353 17.353 0 0 0 13.674.001z" style="" transform="translate(-1)" fill="#4482c3" data-original="#4482c3" class=""></path><path d="M166.962 257.38 141.149 44.434a8.676 8.676 0 0 1 8.615-9.722h214.472a8.678 8.678 0 0 1 8.615 9.722L347.038 257.38a8.677 8.677 0 0 1-5.196 6.932l-81.423 34.896a8.674 8.674 0 0 1-6.837 0l-81.423-34.896a8.675 8.675 0 0 1-5.197-6.932z" style="" transform="translate(-1)" fill="#67b9cc" data-original="#67b9cc"></path><path d="M343.237 67.169a8.683 8.683 0 0 0-8.381-6.424H179.144c-4.793 0-8.678 3.885-8.678 8.678s3.885 8.678 8.678 8.678h123.475l-117.593 68.267a8.677 8.677 0 0 0 4.356 16.182h125.44l-8.458 69.763L257 253.462l-49.364-21.148-4.517-37.263a8.681 8.681 0 0 0-9.661-7.576 8.681 8.681 0 0 0-7.576 9.661L191 239.36a8.688 8.688 0 0 0 5.195 6.932l57.381 24.589a8.682 8.682 0 0 0 6.847 0l57.381-24.589a8.69 8.69 0 0 0 5.195-6.932l10.237-84.445a8.688 8.688 0 0 0-8.618-9.721h-103l117.593-68.267a8.672 8.672 0 0 0 4.026-9.758z" style="" transform="translate(-1)" fill="#e6e7e8" data-original="#e6e7e8"></path></g></svg>