<svg xmlns="http://www.w3.org/2000/svg" version="1.1" xmlns:xlink="http://www.w3.org/1999/xlink" xmlns:svgjs="http://svgjs.com/svgjs" width="512" height="512" x="0" y="0" viewBox="0 0 300 300" style="enable-background:new 0 0 512 512" xml:space="preserve" class=""><rect width="300" height="300" fill="#66b2a0" shape="square"></rect><g transform="matrix(0.82,0,0,0.82,32,26.9999560546875)"><linearGradient id="a" x1="71.945" x2="238.484" y1="241.722" y2="75.182" gradientUnits="userSpaceOnUse"><stop stop-opacity="1" stop-color="#107eff" offset="0"></stop><stop stop-opacity="1" stop-color="#09090a" offset="1"></stop></linearGradient><path fill="url(#a)" d="M260 183.666H132c-2.211 0-4 1.791-4 4v48c0 2.209 1.789 4 4 4h128c2.211 0 4-1.791 4-4v-48c0-2.209-1.789-4-4-4zm-4 48H136v-40h120zm-60-12v-4h-8c-2.211 0-4-1.791-4-4v-12c0-2.209 1.789-4 4-4h12c2.211 0 4 1.791 4 4s-1.789 4-4 4h-8v4h8c2.211 0 4 1.791 4 4v12c0 2.209-1.789 4-4 4h-12c-2.211 0-4-1.791-4-4s1.789-4 4-4zm24 0v-4h-8c-2.211 0-4-1.791-4-4v-12c0-2.209 1.789-4 4-4h12c2.211 0 4 1.791 4 4s-1.789 4-4 4h-8v4h8c2.211 0 4 1.791 4 4v12c0 2.209-1.789 4-4 4h-12c-2.211 0-4-1.791-4-4s1.789-4 4-4zm-60 4v-24c0-2.209 1.789-4 4-4h12c2.211 0 4 1.791 4 4s-1.789 4-4 4h-8v16h8c2.211 0 4 1.791 4 4s-1.789 4-4 4h-12c-2.211 0-4-1.791-4-4zm8-80c2.211 0 4-1.791 4-4v-48c0-2.209-1.789-4-4-4H40c-2.211 0-4 1.791-4 4v48c0 2.209 1.789 4 4 4zm-124-48h120v40H44zm32 8v24c0 2.209-1.789 4-4 4s-4-1.791-4-4v-8h-8v8c0 2.209-1.789 4-4 4s-4-1.791-4-4v-24c0-2.209 1.789-4 4-4s4 1.791 4 4v8h8v-8c0-2.209 1.789-4 4-4s4 1.791 4 4zm28 0c0 2.209-1.789 4-4 4h-4v20c0 2.209-1.789 4-4 4s-4-1.791-4-4v-20h-4c-2.211 0-4-1.791-4-4s1.789-4 4-4h16c2.211 0 4 1.791 4 4zm28 0v24c0 2.209-1.789 4-4 4s-4-1.791-4-4v-14.344l-1.172 1.172a4 4 0 0 1-5.656 0L116 113.322v14.344c0 2.209-1.789 4-4 4s-4-1.791-4-4v-24a3.998 3.998 0 0 1 6.828-2.828L120 106.01l5.172-5.172a3.998 3.998 0 0 1 6.828 2.828zm24 24c0 2.209-1.789 4-4 4h-12c-2.211 0-4-1.791-4-4v-24c0-2.209 1.789-4 4-4s4 1.791 4 4v20h8c2.211 0 4 1.791 4 4zm51.516-55.172 2.828-2.828-2.828-2.828a4 4 0 1 1 5.656-5.656L216 64.01l2.828-2.828a4 4 0 1 1 5.656 5.656l-2.828 2.828 2.828 2.828a4 4 0 1 1-5.656 5.656L216 75.322l-2.828 2.828c-.781.781-1.805 1.172-2.828 1.172s-2.047-.391-2.828-1.172a3.997 3.997 0 0 1 0-5.656zM180 71.666c6.617 0 12-5.383 12-12s-5.383-12-12-12-12 5.383-12 12 5.383 12 12 12zm0-16c2.207 0 4 1.795 4 4s-1.793 4-4 4-4-1.795-4-4 1.793-4 4-4zM88.605 248.057a4.276 4.276 0 1 1-8.553 0 4.276 4.276 0 0 1 8.553 0zM116 207.666H64.91c-2.593 0-4.67-2.039-4.845-4.588C66.914 201.266 72 195.076 72 187.666s-5.086-13.6-11.935-15.412c.175-2.549 2.252-4.588 4.845-4.588h170.18c6.996 0 12.683-5.604 12.875-12.557 6.901-1.776 12.036-7.997 12.036-15.443s-5.135-13.667-12.036-15.443c-.192-6.952-5.878-12.557-12.875-12.557H184c-2.211 0-4 1.791-4 4s1.789 4 4 4h51.09c2.593 0 4.67 2.039 4.845 4.588-6.848 1.812-11.935 8.002-11.935 15.412s5.086 13.6 11.935 15.412c-.175 2.549-2.252 4.588-4.845 4.588H64.91c-6.996 0-12.683 5.604-12.875 12.557C45.135 173.999 40 180.22 40 187.666s5.135 13.667 12.036 15.443c.192 6.952 5.878 12.557 12.875 12.557H116c2.211 0 4-1.791 4-4s-1.789-4-4-4z" data-original="url(#a)" class=""></path></g></svg>