<svg xmlns="http://www.w3.org/2000/svg" version="1.1" xmlns:xlink="http://www.w3.org/1999/xlink" xmlns:svgjs="http://svgjs.com/svgjs" width="512" height="512" x="0" y="0" viewBox="0 0 68 68" style="enable-background:new 0 0 512 512" xml:space="preserve" class=""><rect width="68" height="68" fill="#9ba2a8" shape="square"></rect><g transform="matrix(0.7,0,0,0.7,10.20000057220459,10.200000000000003)"><path d="M60.51 13.41h-2.23V6c0-2.21-1.79-4-4-4H13.72c-2.21 0-4 1.79-4 4v7.41H7.49c-2.2 0-4 1.79-4 4V54.1c0 2.11 1.72 3.82 3.83 3.82h16.46V64h-4.31c-.55 0-1 .45-1 1s.45 1 1 1h29.5c.55 0 1-.45 1-1s-.45-1-1-1h-4.3v-6.08h16.01c2.11 0 3.83-1.71 3.83-3.82V17.41c0-2.21-1.8-4-4-4zM9.72 46.16H5.49V17.41c0-1.1.9-2 2-2h2.23zM26.15 6.5h1.55c.55 0 1 .45 1 1s-.45 1-1 1h-1.55c-.55 0-1-.45-1-1s.45-1 1-1zm-5.51 0h1.54c.56 0 1 .45 1 1s-.44 1-1 1h-1.54c-.56 0-1-.45-1-1s.44-1 1-1zm-5.52 0h1.55c.55 0 1 .45 1 1s-.45 1-1 1h-1.55c-.55 0-1-.45-1-1s.45-1 1-1zM42.67 64H25.78v-6.07h16.89zm13.61-49.66c0 .03-.01.05-.01.07 0 .02.01.04.01.06v31.69H11.72V13h44.56zm6.23 31.82h-4.23V15.41h2.23c1.1 0 2 .9 2 2z" fill="#000000" data-original="#000000" class=""></path><path d="M40.153 34.666a1 1 0 0 0 1.414 0l4.88-4.879a1 1 0 0 0 0-1.414l-4.88-4.88a1 1 0 1 0-1.414 1.414l4.173 4.173-4.173 4.172a1 1 0 0 0 0 1.414zM26.433 34.666a1 1 0 1 0 1.414-1.414l-4.173-4.172 4.173-4.173a1 1 0 1 0-1.414-1.414l-4.88 4.88a1 1 0 0 0 0 1.414zM30.297 38.57a1 1 0 0 0 1.27-.623l5.84-17.088a1 1 0 1 0-1.893-.646L29.674 37.3a1 1 0 0 0 .623 1.27z" fill="#000000" data-original="#000000" class=""></path></g></svg>