<svg xmlns="http://www.w3.org/2000/svg" version="1.1" xmlns:xlink="http://www.w3.org/1999/xlink" xmlns:svgjs="http://svgjs.com/svgjs" width="512" height="512" x="0" y="0" viewBox="0 0 511.99 511.99" style="enable-background:new 0 0 512 512" xml:space="preserve" class=""><rect width="511.99" height="511.99" rx="20" ry="20" fill="#427298" shape="rounded"></rect><g transform="matrix(0.7,0,0,0.7,76.79864291990816,76.79849395751955)"><path d="M392.936 101.96c-.366-31.777-6.407-62.192-17.14-90.281a12.953 12.953 0 0 0-1.879-.142H138.072a12.655 12.655 0 0 0-10.956 6.329L9.188 222.209a12.711 12.711 0 0 0 0 12.668l73.403 127.188a261.143 261.143 0 0 0 39.966 4.429c2.975.102 5.96.152 8.966.152 144.379 0 261.434-117.1 261.434-261.557 0-1.046-.011-2.082-.021-3.129z" style="" fill="#8e91a1" data-original="#707384" class="" opacity="1"></path><path d="M502.802 234.877 384.874 439.221a12.656 12.656 0 0 1-10.956 6.329H138.072a12.655 12.655 0 0 1-10.956-6.329l-44.525-77.156a261.143 261.143 0 0 0 39.966 4.429l24.725 42.85a4.943 4.943 0 0 0 4.275 2.469h205.821a4.943 4.943 0 0 0 4.275-2.469l102.91-178.327a4.946 4.946 0 0 0 0-4.947l-71.627-124.11c-.366-31.777-6.407-62.192-17.14-90.281a12.66 12.66 0 0 1 9.078 6.187l117.928 204.343a12.711 12.711 0 0 1 0 12.668z" style="" fill="#5b5c6c" data-original="#5b5c6c" class=""></path><path d="m464.562 231.017-102.91 178.327a4.943 4.943 0 0 1-4.275 2.469H151.556a4.943 4.943 0 0 1-4.275-2.469l-24.725-42.85c2.975.102 5.96.152 8.966.152 144.379 0 261.434-117.1 261.434-261.557 0-1.046-.01-2.083-.02-3.129l71.626 124.109a4.947 4.947 0 0 1 0 4.948z" style="" fill="#464655" data-original="#464655" class=""></path><path d="M392.957 105.089c0 144.457-117.055 261.557-261.434 261.557-3.006 0-5.991-.051-8.966-.152L44.371 231.017a4.946 4.946 0 0 1 0-4.947l102.91-178.327a4.943 4.943 0 0 1 4.275-2.469h205.821c1.767 0 3.391.945 4.275 2.469l31.284 54.217c.01 1.047.021 2.083.021 3.129z" style="" fill="#5b5c6c" data-original="#5b5c6c" class=""></path><path d="M271.708 356.339H238.41c-25.06 0-45.375-20.315-45.375-45.375v-74.313a2.363 2.363 0 0 1 2.363-2.363H314.72a2.363 2.363 0 0 1 2.363 2.363v74.313c0 25.06-20.315 45.375-45.375 45.375z" style="" fill="#ffcd74" data-original="#ffcd74" class=""></path><path d="M314.72 234.288h-26.993a2.363 2.363 0 0 1 2.363 2.364v74.302c0 25.066-20.31 45.385-45.364 45.385h26.993c25.054 0 45.364-20.32 45.364-45.385v-74.302a2.364 2.364 0 0 0-2.363-2.364z" style="" fill="#ffb96a" data-original="#ffb96a" class=""></path><path d="M395.801 500.447H116.189c-9.94 0-17.998-8.058-17.998-17.998V374.337c0-9.94 8.058-17.998 17.998-17.998h279.612c9.94 0 17.998 8.058 17.998 17.998V482.45c0 9.94-8.058 17.997-17.998 17.997z" style="" fill="#a0dcf0" data-original="#a0dcf0" class=""></path><path d="M395.806 356.339h-30.433c9.938 0 17.994 8.06 17.994 18.002v108.104c0 9.942-8.056 18.002-17.994 18.002h30.433c9.938 0 17.993-8.06 17.993-18.002V374.341c0-9.942-8.056-18.002-17.993-18.002z" style="" fill="#78b9c8" data-original="#78b9c8" class=""></path><path d="M235.054 73.077c-54.019 25.167-75.614 42.945-72.211 59.446 3.712 17.994 34.592 21.624 70.348 25.826 14.536 1.708 29.567 3.475 40.598 6.203 13.993 3.461 14.964 6.842 14.97 6.875.014.08.349 8.576-37.932 27.344a7.501 7.501 0 0 0 6.603 13.469c34.218-16.777 48.436-30.167 46.1-43.417-3.115-17.676-32.009-21.072-68.588-25.372-14.791-1.739-30.086-3.537-41.456-6.361-14.988-3.723-15.919-7.442-15.951-7.598-.101-.487-1.706-12.274 63.854-42.819a7.5 7.5 0 1 0-6.335-13.596z" fill="#000000" data-original="#000000" class=""></path><path d="M222.9 120.16a7.501 7.501 0 0 0 6.593 8.309 460.821 460.821 0 0 1 35.468 5.498 461.22 461.22 0 0 1 35.219 8.33c.673.188 1.35.277 2.016.277a7.504 7.504 0 0 0 7.221-5.49 7.5 7.5 0 0 0-5.213-9.237 476.53 476.53 0 0 0-36.367-8.601 475.951 475.951 0 0 0-36.626-5.677 7.5 7.5 0 0 0-8.311 6.591zM253.836 177.656a7.501 7.501 0 0 0-9.945-3.687c-5.076 2.331-12.229 6.897-17.473 15.413-3.383 5.495-5.401 11.834-5.835 18.333a7.5 7.5 0 1 0 14.967.999c.189-2.841.976-7.137 3.642-11.466 3.446-5.597 8.345-8.446 10.959-9.646a7.501 7.501 0 0 0 3.685-9.946z" fill="#000000" data-original="#000000" class=""></path><path d="m509.301 218.464-11.396-19.748a7.5 7.5 0 0 0-12.992 7.498l11.396 19.746a5.183 5.183 0 0 1 .001 5.164l-76.98 133.393a25.628 25.628 0 0 0-14.954-14.19l66.691-115.574a12.499 12.499 0 0 0-.005-12.428L368.156 44.004a12.467 12.467 0 0 0-10.781-6.231h-205.81c-4.421 0-8.55 2.375-10.786 6.222l-11.243 19.483a7.501 7.501 0 0 0 2.747 10.245 7.502 7.502 0 0 0 10.245-2.748l10.504-18.202h202.866l101.434 175.771-69.416 120.295H308.55c9.879-9.612 16.033-23.034 16.033-37.874v-1.04h6.113c11.56 0 20.964-9.404 20.964-20.964V262.99c0-11.56-9.404-20.964-20.964-20.964h-6.113v-5.375c0-5.438-4.425-9.863-9.863-9.863H195.399c-5.438 0-9.863 4.425-9.863 9.863v74.313c0 14.84 6.154 28.262 16.033 37.874h-80.554L51.599 228.544l76.143-131.946a7.5 7.5 0 1 0-12.992-7.497L37.864 222.334a12.499 12.499 0 0 0 .005 12.428l67.28 116.594a25.65 25.65 0 0 0-12.488 13.161L15.683 231.126a5.183 5.183 0 0 1-.001-5.164L133.613 21.619a5.16 5.16 0 0 1 4.462-2.576h235.84c1.837 0 3.546.987 4.464 2.579l89.622 155.291a7.5 7.5 0 0 0 12.992-7.498l-89.62-155.287a20.204 20.204 0 0 0-17.458-10.084h-235.84c-7.183 0-13.872 3.864-17.456 10.081L2.689 218.466a20.227 20.227 0 0 0 .001 20.155l88.002 152.494v91.333c0 14.06 11.438 25.498 25.498 25.498h167.306c4.143 0 7.5-3.357 7.5-7.5s-3.357-7.5-7.5-7.5H116.19c-5.789 0-10.498-4.709-10.498-10.498V374.336c0-5.789 4.709-10.498 10.498-10.498h.427c.025 0 .05.005.076.005s.051-.005.076-.005H392.162c.025 0 .051.005.076.005s.05-.005.076-.005h3.487c5.789 0 10.498 4.709 10.498 10.498v108.112c0 5.789-4.709 10.498-10.498 10.498h-81.485c-4.143 0-7.5 3.357-7.5 7.5s3.357 7.5 7.5 7.5h81.485c14.06 0 25.498-11.438 25.498-25.498v-91.333l88.003-152.496a20.227 20.227 0 0 0-.001-20.155zm-178.605 38.562a5.971 5.971 0 0 1 5.964 5.964v25.971a5.971 5.971 0 0 1-5.964 5.964h-6.113v-37.898h6.113zm-92.286 91.813c-20.885 0-37.875-16.99-37.875-37.874v-69.177h109.048v69.176c0 20.884-16.99 37.874-37.875 37.874H238.41z" fill="#000000" data-original="#000000" class=""></path><path d="M159.509 458.693c-7.51 0-11.417-4.06-11.72-12.181-.304-3.111-2.77-4.667-7.396-4.667-2.656 0-4.552.512-5.689 1.536s-1.706 2.903-1.706 5.635c0 6.983 2.521 12.505 7.566 16.563 5.044 4.061 11.586 6.09 19.627 6.09 7.813 0 14.127-2.105 18.945-6.317 4.815-4.212 7.225-10.795 7.225-19.751V392.44c0-1.44-.646-2.579-1.935-3.415-1.29-.834-2.807-1.252-4.551-1.252h-19.912c-1.519 0-2.674.626-3.47 1.878-.797 1.253-1.195 2.752-1.195 4.497 0 1.821.416 3.378 1.252 4.667.834 1.291 1.972 1.936 3.413 1.936h11.605v44.851c.001 8.727-4.019 13.091-12.059 13.091zM229.912 388.399c-1.82-.871-3.869-1.309-6.145-1.309s-4.306.393-6.087 1.179c-1.783.786-2.901 1.898-3.356 3.334L192.341 463.2c-.151.649-.228 1.055-.228 1.217 0 1.865 1.127 3.428 3.382 4.685 2.254 1.258 4.622 1.886 7.101 1.886 3.161 0 5.04-.983 5.639-2.951l4.24-15.148h24.378l4.324 15.14c.529 1.975 2.199 2.96 5.006 2.96 2.123 0 4.21-.606 6.258-1.821 2.049-1.213 3.072-2.655 3.072-4.326 0-.15-.076-.529-.228-1.138l-21.96-71.603c-.455-1.596-1.592-2.828-3.413-3.702zm-14.187 52.877 9.776-34.947 9.899 34.947h-19.675zM318.347 393.92c0-1.669-1.023-3.111-3.072-4.326-2.048-1.213-4.135-1.821-6.258-1.821-2.807 0-4.477.987-5.006 2.96l-17.295 61.698-17.409-61.698c-.531-1.973-2.201-2.96-5.006-2.96-2.201 0-4.307.589-6.315 1.765-2.011 1.178-3.015 2.638-3.015 4.383 0 .152.074.531.228 1.138l21.96 71.603c1.138 3.341 4.323 5.009 9.558 5.009 2.275 0 4.323-.438 6.144-1.309 1.821-.872 2.959-2.106 3.414-3.7l21.846-71.603c.15-.608.226-.987.226-1.139zM314.315 464.416c0 1.865 1.127 3.428 3.382 4.685 2.254 1.258 4.622 1.886 7.101 1.886 3.161 0 5.04-.983 5.639-2.951l4.24-15.148h24.378l4.324 15.14c.529 1.975 2.199 2.96 5.006 2.96 2.123 0 4.21-.606 6.258-1.821 2.049-1.213 3.072-2.655 3.072-4.326 0-.15-.076-.529-.228-1.138l-21.96-71.603c-.455-1.594-1.593-2.826-3.413-3.7-1.82-.871-3.869-1.309-6.145-1.309s-4.306.393-6.087 1.179c-1.783.786-2.901 1.898-3.356 3.334l-21.983 71.597c-.152.648-.228 1.053-.228 1.215zm33.387-58.088 9.899 34.947h-19.676l9.777-34.947z" fill="#000000" data-original="#000000" class=""></path></g></svg>