<svg xmlns="http://www.w3.org/2000/svg" version="1.1" xmlns:xlink="http://www.w3.org/1999/xlink" xmlns:svgjs="http://svgjs.com/svgjs" width="512" height="512" x="0" y="0" viewBox="0 0 32 32" style="enable-background:new 0 0 512 512" xml:space="preserve" class=""><rect width="32" height="32" fill="#bbbfc2" shape="square"></rect><g transform="matrix(0.98,0,0,0.98,0.319999997615815,0.3200000000000003)"><g fill="#f60"><path d="M1.645 11.105h.682v3.534c0 1.402-.689 1.834-1.598 1.834-.25 0-.556-.056-.729-.126l.102-.556c.141.054.345.102.573.102.61 0 .971-.275.971-1.309v-3.479zM5.542 16.386l-.054-.478h-.024a1.415 1.415 0 0 1-1.159.564c-.768 0-1.161-.541-1.161-1.089 0-.916.816-1.418 2.281-1.411v-.078c0-.313-.087-.877-.862-.877-.353 0-.721.11-.987.282l-.156-.454c.313-.204.767-.338 1.246-.338 1.159 0 1.441.792 1.441 1.552v1.418c0 .33.015.651.063.909zM5.44 14.45c-.753-.015-1.606.119-1.606.855 0 .447.297.658.651.658a.943.943 0 0 0 .916-.634.707.707 0 0 0 .039-.219zM7.424 12.594l.744 2.131c.126.345.228.658.306.971h.024c.085-.313.196-.626.321-.971l.736-2.131h.721l-1.489 3.792h-.658l-1.441-3.792zM12.998 16.386l-.054-.478h-.024a1.415 1.415 0 0 1-1.159.564c-.768 0-1.161-.541-1.161-1.089 0-.916.816-1.418 2.281-1.411v-.078c0-.313-.087-.877-.862-.877-.353 0-.721.11-.987.282l-.156-.454c.313-.204.767-.338 1.246-.338 1.159 0 1.441.792 1.441 1.552v1.418c0 .33.015.651.063.909zm-.102-1.936c-.753-.015-1.606.119-1.606.855 0 .447.297.658.651.658a.943.943 0 0 0 .916-.634.707.707 0 0 0 .039-.219zM14.582 15.68a1.8 1.8 0 0 0 .909.274c.501 0 .736-.25.736-.563 0-.33-.196-.51-.705-.698-.682-.243-1.003-.619-1.003-1.073 0-.612.494-1.113 1.309-1.113.384 0 .721.11.933.236l-.173.501a1.464 1.464 0 0 0-.775-.219c-.408 0-.636.235-.636.517 0 .313.228.454.722.642.658.25.994.58.994 1.144 0 .666-.517 1.136-1.418 1.136-.416 0-.8-.102-1.066-.258zM20.484 16.245c-.18.094-.58.219-1.089.219-1.144 0-1.888-.775-1.888-1.934 0-1.168.799-2.014 2.038-2.014.406 0 .767.102.955.196l-.156.534c-.165-.095-.423-.18-.799-.18-.87 0-1.341.642-1.341 1.433 0 .877.564 1.418 1.317 1.418.391 0 .649-.101.846-.187zM21.291 13.777c0-.447-.007-.831-.031-1.183h.603l.024.744h.031c.173-.51.588-.831 1.05-.831.078 0 .133.008.196.024v.651a1.07 1.07 0 0 0-.235-.024c-.486 0-.831.369-.925.886a2.02 2.02 0 0 0-.031.321v2.021h-.683v-2.609zM24.655 11.528c.008.235-.165.423-.439.423a.41.41 0 0 1-.415-.423c0-.243.18-.43.43-.43.259 0 .424.187.424.43zm-.768 4.858v-3.792h.69v3.792zM25.722 13.831c0-.485-.015-.877-.031-1.237h.619l.032.651h.015c.282-.462.729-.737 1.348-.737.916 0 1.606.777 1.606 1.927 0 1.363-.831 2.038-1.724 2.038-.501 0-.941-.219-1.168-.596h-.015v2.062h-.683v-4.108zm.683 1.011c0 .102.015.196.031.282.126.478.541.807 1.034.807.729 0 1.152-.596 1.152-1.465 0-.76-.399-1.411-1.129-1.411-.469 0-.908.337-1.042.853a1.108 1.108 0 0 0-.046.282zM31.013 11.504v1.089H32v.525h-.987v2.045c0 .469.133.736.517.736a1.6 1.6 0 0 0 .399-.046l.032.517a1.713 1.713 0 0 1-.612.094c-.321 0-.58-.102-.744-.289-.196-.204-.265-.542-.265-.987v-2.069h-.588v-.525h.588v-.909z" fill="#0a0400" data-original="#ff6600" class="" opacity="1"></path></g><path fill="#22acdd" d="M0 19.884h32v1.018H0z" data-original="#22acdd" class=""></path></g></svg>